<?xml version="1.0" encoding="UTF-8" standalone="no"?>
<svg viewBox="0 0 218.4106 2468.5459" xmlns="http://www.w3.org/2000/svg" xmlns:xlink="http://www.w3.org/1999/xlink">
<defs>
<filter height="1.03794" id="filter7587" width="1.70398" x="-.35199" y="-.01897">
<feGaussianBlur stdDeviation="18.7987"/>
</filter>
<linearGradient id="linearGradient3063">
<stop offset="0" stop-color="#f3dda5"/>
<stop offset=".5" stop-color="#bb921c"/>
<stop offset="1" stop-color="#937448"/>
</linearGradient>
<radialGradient cx="436.44391" cy="527.18396" gradientTransform="matrix(.43237,.2296,-.82776,1.55877,698.11007,171.34404)" gradientUnits="userSpaceOnUse" id="radialGradient7929" r="63.1417" xlink:href="#linearGradient3063"/>
<radialGradient cx="436.44391" cy="527.18396" gradientTransform="matrix(.43237,.2296,-.82776,1.55877,698.11007,282.97608)" gradientUnits="userSpaceOnUse" id="radialGradient7931" r="63.1417" xlink:href="#linearGradient3063"/>
<radialGradient cx="436.44391" cy="527.18396" gradientTransform="matrix(.43237,.2296,-.82776,1.55877,698.11007,393.88708)" gradientUnits="userSpaceOnUse" id="radialGradient7933" r="63.1417" xlink:href="#linearGradient3063"/>
<radialGradient cx="436.44391" cy="527.18396" gradientTransform="matrix(.43237,.2296,-.82776,1.55877,677.03498,-417.4037)" gradientUnits="userSpaceOnUse" id="radialGradient7935" r="63.1417" xlink:href="#linearGradient3063"/>
<radialGradient cx="436.44391" cy="527.18396" gradientTransform="matrix(.43237,.2296,-.82776,1.55877,698.11007,2510.782)" gradientUnits="userSpaceOnUse" id="radialGradient7971" r="63.1417" xlink:href="#linearGradient3063"/>
<radialGradient cx="436.44391" cy="527.18396" gradientTransform="matrix(.43237,.2296,-.82776,1.55877,698.11007,2623.693)" gradientUnits="userSpaceOnUse" id="radialGradient7973" r="63.1417" xlink:href="#linearGradient3063"/>
<radialGradient cx="436.44391" cy="527.18396" gradientTransform="matrix(.43237,.2296,-.82776,1.55877,698.11007,2735.325)" gradientUnits="userSpaceOnUse" id="radialGradient7975" r="63.1417" xlink:href="#linearGradient3063"/>
</defs>
<g transform="translate(-330.60037,-1189.852)">
<path d="m375.75,1234.9688c.0215,1.0328.0561,2.0432.0937,3.0624 .0103.3941.0144.7966.0312,1.1876 .006.03-.006.063 0,.094 .72376,16.5596 3.61022,31.2405 8.0625,43.2813-1.76373,6.5978-3.23125,13.0919-4.40625,19.4687-.001.032.001.062 0,.094-.10631.5783-.21092,1.1428-.3125,1.7188-.2323,1.3165-.44809,2.6322-.65625,3.9375-.11658.7321-.23474,1.4591-.34375,2.1875-.18475,1.232-.36775,2.4664-.53125,3.6875-.0977.7314-.15986,1.4601-.25,2.1875-.43348,3.4889-.79838,6.9219-1.0625,10.3125-.006.073-.0257.146-.0312.2187 .00035.011-.00035.021 0,.031-.43799,5.707-.64099,11.2686-.625,16.6563 .005.019-.005.043 0,.062 .001.4086.0283.8115.0312,1.2188 .0128,1.3536.0222,2.7002.0625,4.0312 .0218.8149.0279,1.6339.0625,2.4376 .006.032.0254.062.0312.094 .71574,16.4129 3.52262,30.9867 7.90625,42.9687-1.71454,6.4573-3.13075,12.8175-4.28125,19.0626-.001.032.001.062 0,.094-.10631.5782-.21092,1.1427-.3125,1.7187-.2323,1.3168-.44809,2.632-.65625,3.9376-.11658.7321-.23474,1.4591-.34375,2.1874-.18475,1.2323-.36775,2.4661-.53125,3.6876-.0977.7314-.15986,1.46-.25,2.1874-.42816,3.447-.79961,6.8678-1.0625,10.2188-.008.1036-.0233.209-.0312.3125 .0007.021-.00071.042 0,.062-.43714,5.6974-.64011,11.2457-.625,16.625 .005.019-.005.043 0,.062 .001.3981.0284.7906.0312,1.1875 .0128,1.4009.0203,2.7796.0625,4.1562 .0214.7832.0292,1.571.0625,2.3438 .006.032.0254.062.0312.094 .71313,16.3636 3.51639,30.9127 7.875,42.875-1.69513,6.4025-3.10955,12.7128-4.25,18.9062-.001.032.001.062 0,.094-.28892,1.5723-.55792,3.162-.8125,4.7187-.23644,1.4479-.44926,2.8793-.65625,4.3125-.12128.8381-.26358,1.6669-.375,2.5-.0964.7224-.16096,1.4377-.25,2.1562-.18064,1.454-.34911,2.9064-.5,4.3438-.0481.4594-.0799.9173-.125,1.375-.11009,1.114-.22005,2.2403-.3125,3.3438-.0415.4964-.11824,1.0056-.15625,1.5 .002.064-.002.1238 0,.1874-.42976,5.6529-.64077,11.161-.625,16.5 .005.02-.005.043 0,.063 .001.4085.0283.8114.0312,1.2187 .009.9644.008,1.922.0312,2.875 .0244,1.208.0427,2.4089.0937,3.5937 .0174.095.0451.1866.0625.2813 .7308,16.3354 3.50744,30.8471 7.875,42.7813-1.72584,6.4992-3.12674,12.9035-4.28125,19.1874 .002-.042-.002-.083 0-.125-.55968,3.0377-1.03741,6.0557-1.46875,9.0313-.12722.8762-.25856,1.7543-.375,2.625-.0964.7224-.16096,1.4377-.25,2.1563-.18064,1.4539-.34911,2.9063-.5,4.3437-.0549.525-.1052,1.0398-.15625,1.5625-.0988,1.0087-.19689,2.0312-.28125,3.0312-.0446.5301-.11567,1.0661-.15625,1.5938 .002.073-.003.1454 0,.2188-.42941,5.6482-.64041,11.1337-.625,16.4687 .005.019-.005.043 0,.062 .001.398.0284.7906.0312,1.1875 .009,1.003.007,2.0094.0312,3 .0243,1.176.0441,2.346.0937,3.5 .0173.094.0452.187.0625.2813 .73478,16.4857 3.56622,31.0953 8,43.0937-1.76965,6.6173-3.22863,13.1048-4.40625,19.5-.001.032.001.062 0,.094-.28892,1.5724-.55792,3.1621-.8125,4.7188-.23644,1.4479-.44926,2.8793-.65625,4.3125-.12128.8381-.26358,1.6669-.375,2.5-.0964.7224-.16096,1.4377-.25,2.1563-.18064,1.4539-.34911,2.9063-.5,4.3437-.0481.4594-.0799.9173-.125,1.375-.11009,1.114-.22005,2.2403-.3125,3.3437-.0415.4965-.11824,1.0057-.15625,1.5 .002.063-.002.1247 0,.1876-.42976,5.6528-.64077,11.1609-.625,16.5 .005.019-.005.043 0,.062 .001.4086.0283.8115.0312,1.2188 .009.9644.008,1.922.0312,2.875 .0244,1.208.0427,2.4088.0937,3.5938 .0174.095.0451.1865.0625.2812 .74853,16.7318 3.63643,31.5614 8.1875,43.6562-1.86122,6.885-3.37275,13.6666-4.59375,20.3126 .002-.043-.002-.083 0-.125-.5891,3.1972-1.08418,6.3402-1.53125,9.4687-.0926.6462-.19452,1.2943-.28125,1.9375-.12065.8977-.2032,1.7958-.3125,2.6875-.16885,1.3728-.32644,2.7357-.46875,4.0937-.0373.357-.0895.7067-.125,1.0626-.12139,1.2137-.24329,2.4237-.34375,3.625-.0407.4877-.0876.983-.125,1.4687 .002.063-.002.1246 0,.1875-.42976,5.6528-.64077,11.161-.625,16.5 .005.019-.005.043 0,.062 .001.4085.0283.8115.0312,1.2187 .009.973.008,1.945.0312,2.9063 .0244,1.1973.0432,2.3879.0937,3.5625 .0174.095.0451.1866.0625.2812 .73491,16.4851 3.56639,31.0959 8,43.0938-1.77511,6.6408-3.22731,13.1768-4.40625,19.5938 .002-.043-.002-.083 0-.125-.5891,3.1972-1.08418,6.3402-1.53125,9.4687-.0926.6462-.19452,1.2943-.28125,1.9375-.12065.8977-.2032,1.7958-.3125,2.6875-.16885,1.3728-.32644,2.7357-.46875,4.0937-.0373.357-.0895.7067-.125,1.0626-.12139,1.2137-.24329,2.4237-.34375,3.625-.0407.4877-.0876.983-.125,1.4687 .002.063-.002.1246 0,.1875-.42976,5.6528-.64077,11.161-.625,16.5 .005.019-.005.043 0,.062 .001.4085.0283.8115.0312,1.2187 .009.973.008,1.945.0312,2.9063 .0244,1.1973.0432,2.3879.0937,3.5625 .0173.094.0452.187.0625.2812 .74115,16.6251 3.5953,31.3517 8.09375,43.4063-1.81439,6.7447-3.30036,13.3915-4.5,19.9063-.001.032.001.062 0,.094-.28892,1.5724-.55792,3.162-.8125,4.7187-.23644,1.4479-.44926,2.8793-.65625,4.3126-.12128.8381-.26358,1.6669-.375,2.5-.0964.7224-.16096,1.4377-.25,2.1562-.18064,1.4539-.34911,2.9064-.5,4.3438-.0481.4594-.0799.9172-.125,1.375-.11009,1.1139-.22005,2.2403-.3125,3.3437-.0415.4965-.11824,1.0056-.15625,1.5 .002.063-.002.1246 0,.1875-.42976,5.6528-.64077,11.161-.625,16.5 .005.019-.005.043 0,.062 .001.4085.0283.8115.0312,1.2187 .009.9645.008,1.922.0312,2.875 .0244,1.208.0427,2.4089.0937,3.5938 .0174.095.0451.1866.0625.2812 .73722,16.4789 3.56635,31.1006 8,43.0938-1.77509,6.6408-3.22732,13.1768-4.40625,19.5938 .002-.043-.002-.083 0-.125-.5891,3.1972-1.08418,6.3403-1.53125,9.4687-.0926.6462-.19452,1.2943-.28125,1.9375-.12065.8977-.2032,1.7958-.3125,2.6875-.16885,1.3728-.32644,2.7357-.46875,4.0937-.0373.3569-.0895.7067-.125,1.0626-.12139,1.2137-.24329,2.4237-.34375,3.625-.0407.4877-.0876.983-.125,1.4687 .002.063-.002.1246 0,.1875-.42976,5.6528-.64077,11.161-.625,16.5 .005.019-.005.043 0,.062 .001.4085.0283.8115.0312,1.2187 .009.973.008,1.945.0312,2.9063 .0244,1.1973.0432,2.3879.0937,3.5625 .0174.095.0451.1866.0625.2812 .72846,16.3405 3.50797,30.8428 7.875,42.7813-1.72584,6.4993-3.12674,12.9035-4.28125,19.1875 .002-.042-.002-.082 0-.125-.58717,3.1868-1.08519,6.319-1.53125,9.4375-.0942.6564-.19316,1.3155-.28125,1.9687-.12065.8977-.2032,1.7959-.3125,2.6876-.16885,1.3728-.32644,2.7357-.46875,4.0937-.0373.3569-.0895.7066-.125,1.0625-.12139,1.2138-.24329,2.4237-.34375,3.625-.0407.4878-.0876.983-.125,1.4688 .002.063-.002.1246 0,.1874-.42976,5.6529-.64077,11.161-.625,16.5 .005.019-.005.043 0,.063 .001.4085.0283.8114.0312,1.2187 .009.9729.008,1.945.0312,2.9063 .0244,1.1973.0432,2.3878.0937,3.5624 .0173.094.0452.187.0625.2813 .72657,16.298 3.49619,30.7667 7.84375,42.6875-1.70403,6.4361-3.1064,12.7754-4.25,19 .002-.042-.002-.082 0-.125-.5744,3.1175-1.06071,6.1979-1.5,9.25-.11438.7929-.2382,1.5866-.34375,2.375-.0977.7314-.15986,1.4601-.25,2.1875-.18361,1.4779-.34712,2.9455-.5,4.4063-.0362.347-.0905.6852-.125,1.0312-.12127,1.2126-.24336,2.4249-.34375,3.625-.0407.4877-.0876.983-.125,1.4688 .002.073-.003.1453 0,.2187-.42879,5.6464-.64075,11.1355-.625,16.4687 .005.019-.005.043 0,.063 .001.4085.0283.8114.0312,1.2187 .009.9729.008,1.945.0312,2.9063 .0244,1.1973.0432,2.3879.0937,3.5624 .0173.094.0452.187.0625.2813 .72903,16.353 3.50218,30.8688 7.875,42.8125-1.72584,6.4993-3.12674,12.9035-4.28125,19.1875 .002-.042-.002-.082 0-.125-.5744,3.1175-1.06071,6.1978-1.5,9.25-.11438.7929-.2382,1.5866-.34375,2.375-.0977.7314-.15986,1.4601-.25,2.1875-.18361,1.4779-.34712,2.9455-.5,4.4062-.0362.3471-.0905.6852-.125,1.0313-.12139,1.2138-.24329,2.4237-.34375,3.625-.0407.4878-.0876.983-.125,1.4687 .002.063-.002.1247 0,.1876-.42976,5.6528-.64077,11.1609-.625,16.5 .005.019-.005.043 0,.062 .001.4086.0283.8115.0312,1.2188 .009.9729.008,1.945.0312,2.9062 .0244,1.1974.0432,2.3879.0937,3.5626 .0173.094.0452.1869.0625.2812 .73491,16.485 3.56639,31.0958 8,43.0938-1.77511,6.6408-3.22731,13.1767-4.40625,19.5937 .002-.042-.002-.082 0-.125-.5744,3.1175-1.06071,6.1978-1.5,9.25-.11438.7929-.2382,1.5866-.34375,2.375-.0977.7314-.15986,1.4601-.25,2.1875-.18361,1.4779-.34712,2.9455-.5,4.4062-.0362.3471-.0905.6852-.125,1.0313-.12127,1.2126-.24336,2.4249-.34375,3.625-.0407.4878-.0876.983-.125,1.4687 .002.073-.003.1454 0,.2188-.42845,5.6418-.64039,11.1395-.625,16.4688 .005.019-.005.043 0,.062 .001.3981.0284.7907.0312,1.1876 .009,1.0029.007,2.0093.0312,3 .0243,1.176.0441,2.3459.0937,3.5 .0173.094.0452.1869.0625.2812 .74613,16.7405 3.63543,31.5555 8.1875,43.6562-1.85251,6.8524-3.37552,13.603-4.59375,20.2188-.001.032.001.062 0,.094-.28892,1.5723-.55792,3.162-.8125,4.7187-.23644,1.4479-.44926,2.8793-.65625,4.3125-.12128.8381-.26358,1.6669-.375,2.5-.0964.7224-.16096,1.4377-.25,2.1562-.18064,1.454-.34911,2.9064-.5,4.3438-.0481.4594-.0799.9173-.125,1.375-.11009,1.114-.22005,2.2403-.3125,3.3438-.0415.4964-.11824,1.0056-.15625,1.5 .002.064-.002.1238 0,.1874-.42976,5.6529-.64077,11.161-.625,16.5 .005.019-.005.043 0,.063 .001.4085.0283.8114.0312,1.2187 .009.9644.008,1.922.0312,2.875 .0244,1.208.0427,2.4088.0937,3.5937 .0174.095.0451.1866.0625.2813 .73722,16.4789 3.56635,31.1006 8,43.0937-1.77509,6.6408-3.22732,13.1769-4.40625,19.5938 .002-.042-.002-.082 0-.125-.58717,3.1868-1.08519,6.319-1.53125,9.4375-.0942.6564-.19316,1.3155-.28125,1.9687-.12541.9331-.2306,1.8547-.34375,2.7813-.15532,1.2671-.30481,2.5267-.4375,3.7813-.0671.6372-.1261,1.2722-.1875,1.9062-.0964.992-.16759,1.9852-.25,2.9688-.0415.4964-.11824,1.0056-.15625,1.5 .002.063-.002.1246 0,.1874-.42976,5.6529-.64077,11.161-.625,16.5 .005.019-.005.043 0,.063 .001.4085.0283.8114.0312,1.2187 .009.9644.008,1.922.0312,2.875 .0244,1.208.0427,2.4089.0937,3.5937 .0174.095.0451.1866.0625.2813 .72936,16.3033 3.52213,30.7978 7.875,42.7187-1.71536,6.469-3.13198,12.8383-4.28125,19.0938 .002-.042-.002-.082 0-.125-.5744,3.1175-1.06071,6.1978-1.5,9.25-.11438.7929-.2382,1.5866-.34375,2.375-.0977.7314-.15986,1.4601-.25,2.1875-.18361,1.4779-.34712,2.9455-.5,4.4063-.0362.347-.0905.6851-.125,1.0312-.12127,1.2126-.24336,2.4249-.34375,3.625-.0407.4878-.0876.983-.125,1.4688 .002.073-.003.1453 0,.2187-.42879,5.6464-.64075,11.1355-.625,16.4687 .005.019-.005.043 0,.063 .001.4085.0283.8114.0312,1.2187 .009.9729.008,1.945.0312,2.9063 .0244,1.1973.0432,2.3878.0937,3.5624 .0173.094.0452.187.0625.2813 .73491,16.485 3.56639,31.0958 8,43.0937-1.77511,6.6409-3.22731,13.1768-4.40625,19.5938 .002-.042-.002-.083 0-.125-.55968,3.0376-1.03741,6.0556-1.46875,9.0312-.12722.8762-.25856,1.7544-.375,2.625-.0964.7225-.16096,1.4378-.25,2.1563-.18064,1.4539-.34911,2.9064-.5,4.3437-.0549.525-.1052,1.0398-.15625,1.5626-.0988,1.0086-.19689,2.0312-.28125,3.0312-.0446.5301-.11567,1.066-.15625,1.5938 .002.073-.003.1453 0,.2187-.42941,5.6483-.64041,11.1337-.625,16.4687 .005.019-.005.043 0,.063 .001.398.0284.7906.0312,1.1874 .009,1.003.007,2.0094.0312,3 .0243,1.1761.0441,2.346.0937,3.5 .0173.094.0452.187.0625.2813 .72833,16.3412 3.5078,30.8423 7.875,42.7813-1.71691,6.4656-3.12987,12.841-4.28125,19.0937-.001.032.001.062 0,.094-.28892,1.5724-.55792,3.1621-.8125,4.7188-.23644,1.4479-.44926,2.8793-.65625,4.3125-.12128.8381-.26358,1.6669-.375,2.5-.0964.7224-.16096,1.4377-.25,2.1563-.18064,1.4539-.34911,2.9063-.5,4.3437-.0481.4594-.0799.9173-.125,1.375-.11009,1.114-.22005,2.2403-.3125,3.3437-.0415.4965-.11824,1.0057-.15625,1.5 .002.063-.002.1247 0,.1876-.42976,5.6528-.64077,11.1609-.625,16.5 .005.019-.005.043 0,.062 .001.4086.0283.8115.0312,1.2188 .009.9644.008,1.922.0312,2.875 .0244,1.208.0427,2.4089.0937,3.5938 .0174.095.0451.1865.0625.2812 .72835,16.2807 3.50126,30.7448 7.84375,42.6562-1.70717,6.4453-3.10482,12.7981-4.25,19.0313 .002-.042-.002-.082 0-.125-.58717,3.1868-1.08519,6.319-1.53125,9.4375-.0942.6564-.19316,1.3155-.28125,1.9688-.12065.8976-.2032,1.7958-.3125,2.6874-.16885,1.3729-.32644,2.7358-.46875,4.0938-.0373.3569-.0895.7066-.125,1.0625-.12139,1.2138-.24329,2.4237-.34375,3.625-.0407.4878-.0876.983-.125,1.4687 .002.063-.002.1247 0,.1876-.42976,5.6528-.64077,11.1609-.625,16.5 .005.019-.005.043 0,.062 .001.4086.0283.8115.0312,1.2188 .009.9729.008,1.945.0312,2.9062 .0244,1.1974.0432,2.3879.0937,3.5626 .0174.095.0451.1865.0625.2812 .72903,16.353 3.50218,30.8688 7.875,42.8125-1.72559,6.4985-3.12687,12.9042-4.28125,19.1875 .002-.042-.002-.082 0-.125-.56738,3.0794-1.03323,6.1094-1.46875,9.125-.11955.8261-.26504,1.6475-.375,2.4688-.10775.8066-.18268,1.6044-.28125,2.4062-.16357,1.326-.32996,2.6565-.46875,3.9688-.0671.6372-.1261,1.2722-.1875,1.9062-.0964.992-.16759,1.9852-.25,2.9688-.0415.4964-.11824,1.0056-.15625,1.5 .002.063-.002.1246 0,.1874-.42976,5.6529-.64077,11.161-.625,16.5 .005.019-.005.043 0,.063 .001.4085.0283.8114.0312,1.2187 .009.9644.008,1.922.0312,2.875 .0244,1.208.0427,2.4088.0937,3.5937 .0174.095.0451.1866.0625.2813 .73752,16.4858 3.56317,31.129 8,43.125-1.7677,6.6216-3.23204,13.1643-4.40625,19.5625 .002-.042-.002-.083 0-.125-.0987.5358-.18659,1.0598-.28125,1.5938-.0539.3038-.1037.6029-.15625.9062-.21521,1.2416-.43148,2.4876-.625,3.7188-.0146.093-.0168.1885-.0312.2812-.0984.6307-.1885,1.2471-.28125,1.875-.16988,1.1497-.34866,2.2973-.5,3.4375-.147,1.1084-.27653,2.2133-.40625,3.3125-.0356.3014-.0595.6056-.0937.9062-.13082,1.1474-.2627,2.3006-.375,3.4376-.12969,1.3133-.23857,2.6075-.34375,3.9062-.0261.3218-.0691.6479-.0937.9688 .00035.01-.00035.021 0,.031-.43919,5.748-.61505,11.3575-.59375,16.7812-.0116-.041-.0196-.084-.0312-.125 .008,2.6186.0471,5.2155.15625,7.75 .0211.1149.0414.229.0625.3438 .57313,12.6313 2.37296,24.1773 5.1875,34.2812h5.71875 3.375 11.9375 40.125 1.625 8.625 .90625 2.71875 44.3125c6.07613-33.7422 3.32186-66.0124-2.59375-98.875-.0915.2232-.21601.4894-.3125.7188 9.647-38.6889 7.01125-75.1621.3125-112.375-.33369.8132-.72664,1.6984-1.125,2.5938 10.59297-39.8555 8.0041-77.2852 1.125-115.5-.0891.2171-.2187.4643-.3125.6874 9.61586-38.6221 7.02235-75.0373.34375-112.1874 9.23379-38.0914 6.61276-74.0677.0312-110.75 9.21092-38.0993 6.56365-74.0848-.0312-110.7813 9.26013-38.2 6.59157-74.2714-.0312-111.0625-.0933.2274-.21406.4848-.3125.7188 9.62268-38.602 7.00966-74.9981.34375-112.125 9.24318-38.1783 6.58818-74.2278-.0312-111-.0891.2171-.2187.4643-.3125.6874 9.62679-38.666 7.00785-75.1184.3125-112.3124-.32828.8-.70288,1.6516-1.09375,2.5312 10.57078-39.831 7.96923-77.2428 1.09375-115.4375-.0933.2274-.21406.4848-.3125.7187 9.63318-38.6439 7.02573-75.0809.34375-112.25 9.23625-38.1014 6.61663-74.0574.0312-110.75 9.21096-38.0994 6.56372-74.0845-.0312-110.7812 9.26013-38.2 6.59157-74.2714-.0312-111.0625-.0891.2172-.2187.4644-.3125.6875 9.62679-38.666 7.00785-75.1184.3125-112.3125-.22326.5441-.49759,1.1376-.75,1.7187 10.15882-39.3285 7.548-76.3294.75-114.0937-.0891.2172-.2187.4644-.3125.6875 9.62679-38.666 7.00785-75.1184.3125-112.3125-.33369.8132-.72667,1.6984-1.125,2.5937 10.59024-39.8545 8.0041-77.2851 1.125-115.5-.0884.2155-.18822.4662-.28125.6876 9.61363-38.6193 6.99061-75.0399.3125-112.1876 9.23369-38.0909 6.61262-74.068.0312-110.75 4.02529-16.6335 5.77873-32.8756 5.9375-48.9374h-29.9375-53.25-44-.90625-.0312z" fill-opacity=".5" filter="url(#filter7587)"/>
<path d="m375.75,1234.9688c.54289,26.1396 6.29842,47.9809 15.3125,62.5624 8.17108-17.6794 18.65715-39.6466 29.625-62.5624h-44.9375z" fill="url(#radialGradient7929)"/>
<path d="m393.59375,1234.9688c4.25087,9.9985 9.21308,19.0933 13.71875,28l1.1875-2.5c-1.73613-9.0547-4.46782-17.2904-7.4375-25.5h-7.46875z" fill="#78540a"/>
<path d="m378.875,1234.9688c4.13833,18.631 12.55416,32.7466 20.25,45.2812 .35444-.754.70322-1.5182 1.0625-2.2812-4.7058-13.8902-11.87988-25.7053-16.46875-43h-4.84375z" fill="#78540a"/>
<path d="m375.78125,1234.9688c.0241,1.4301.0335,2.8509.0937,4.25 3.61896,19.7437 7.62061,39.5259 17.90625,52.5 1.24606-2.6778 2.48563-5.3578 3.8125-8.1876-11.86763-11.8172-15.9031-30.1702-20.90625-48.5624h-.90625z" fill="#78540a"/>
<path d="m401.8125,1234.9688c-1.58284,3.2383-3.12819,6.4278-4.5625,9.5312-29.85362,68.8039-25.50998,133.3996-6.1875,164.6562 22.28224-48.2112 61.04608-127.4197 82.875-174.1874h-72.125z" fill="url(#radialGradient7931)"/>
<path d="m433.46875,1234.9688c2.96536,21.3448 6.55458,43.0011 10.34375,63.3437 .18958-.3952.40453-.793.59375-1.1875 .20895-21.8952-1.40957-42.8107-4.25-62.1562h-6.6875z" fill="#78540a"/>
<path d="m449.75,1234.9688c1.25651,14.8483 2.1284,30.1159 2.4375,45.9062 .26397-.5517.51858-1.107.78125-1.6562 1.14002-14.9851 1.52636-29.8459 1.09375-44.25h-4.3125z" fill="#78540a"/>
<path d="m415.40625,1234.9688c1.30817,28.344 8.89739,63.5613 16.15625,88.875 .35381-.7373.70869-1.4503 1.0625-2.1876-.5017-30.5863-7.77189-58.478-12.09375-86.6874h-5.125z" fill="#78540a"/>
<path d="m402.84375,1234.9688c-2.32493,38.9145 10.37328,81.7775 19.5625,108 .66661-1.392 1.33021-2.7899 2-4.1876-2.9159-33.2394-13.17146-68.9257-16.59375-103.8124h-4.96875z" fill="#78540a"/>
<path d="m393.45009,1253.786c-.28914.7375-.56234,1.4827-.84375,2.2188-7.54972,42.7164 9.26267,75.4969 21.90625,103.4687 .34957-.7325.67985-1.389 1.03125-2.125-5.87793-37.0768-21.42383-59.7097-22.09375-103.5625z" fill="#78540a"/>
<path d="m386.82509,1272.6923c-.92977,3.0034-1.81993,6.0009-2.625,8.9687-5.16255,42.6219 10.73086,68.4372 23.125,92.9375l1.1875-2.5c-6.07653-31.6918-24.51093-53.2431-21.6875-99.4062z" fill="#78540a"/>
<path d="m379.54384,1302.0673c-1.5394,8.355-2.58304,16.4823-3.1875,24.3437 .97514,29.2853 12.52558,48.7648 22.78125,65.4688 .35444-.754.70322-1.5182 1.0625-2.2813-7.86422-23.2128-22.71152-40.5766-20.65625-87.5312z" fill="#78540a"/>
<path d="m375.73134,1343.0985c.008,2.6187.0471,5.2155.15625,7.75 3.61896,19.7438 7.62061,39.5259 17.90625,52.5 1.24606-2.6778 2.48563-5.3577 3.8125-8.1875-12.62033-12.5668-16.38676-32.5264-21.875-52.0625z" fill="#78540a"/>
<path d="m463.875,1234.9688c-22.40087,38.1427-49.86645,84.1776-66.625,120.4374-29.85362,68.8039-25.50998,133.4309-6.1875,164.6876 28.4328-61.5191 83.82459-173.8035 96.4375-204.3126 11.60326-28.0668 16.11649-54.6599 16.375-80.8124h-40z" fill="url(#radialGradient7933)"/>
<path d="m429.11903,1294.5702c-.40901.7735-.81105,1.5396-1.21875,2.3125 2.92759,35.4203 9.15392,75.9952 15.92481,112.3456 .18958-.3952.40453-.793.59375-1.1875 .41156-43.1266-6.38158-82.4477-15.29981-113.4706z" fill="#78540a"/>
<path d="m442.15467,1271.8603c-.42848.7971-.85231,1.5762-1.28125,2.375 5.71474,36.8098 10.49955,75.3023 11.32667,117.5555 .26397-.5517.51858-1.1071.78125-1.6563 3.29247-43.2778.39662-85.6793-10.82667-118.2742z" fill="#78540a"/>
<path d="m450.10685,1258.334c-.15515.2873-.31338.5873-.46875.875 7.71603,32.7245 14.58046,65.8827 12.93699,110.738 1.00646-2.1184 1.96754-4.108 2.9375-6.1562 7.68563-44.7461-2.51565-75.8182-15.40574-105.4568z" fill="#78540a"/>
<path d="m460.5431,1240.523c-.21125.3914-.41286.7946-.625,1.1875 7.61216,35.8007 16.84091,58.4876 16.28199,99.3303 .40309-.8689.73604-1.6269 1.125-2.4688 5.99002-46.729-5.4764-70.9796-16.78199-98.049z" fill="#78540a"/>
<path d="m471.4375,1234.9688c9.75274,29.1046 12.11296,50.868 12.5,89.0624 .76747-1.7312 1.42802-3.2417 2.0625-4.7187 4.28017-42.092-2.59098-63.787-12.75-84.3437h-1.8125z" fill="#78540a"/>
<path d="m417.47568,1315.6653c-.0318.062-.062.1257-.0937.1875-6.87178,28.0944 3.98391,83.3043 14.19316,118.9067 .35381-.7372.70869-1.4503 1.0625-2.1875-.67933-41.4157-13.82894-77.9002-15.16191-116.9067z" fill="#78540a"/>
<path d="m406.98523,1335.3415c-1.34686,2.7256-2.72022,5.4759-4,8.125-3.01523,39.5417 10.05477,83.6545 19.43361,110.418 .66661-1.3919 1.33021-2.7898 2-4.1875-3.21033-36.5958-15.35094-76.161-17.43361-114.3555z" fill="#78540a"/>
<path d="m393.45009,1364.697c-.28914.7375-.56234,1.4827-.84375,2.2188-7.54972,42.7164 9.26267,75.4969 21.90625,103.4687 .34957-.7325.67985-1.389 1.03125-2.125-5.87793-37.0768-21.42383-59.7097-22.09375-103.5625z" fill="#78540a"/>
<path d="m386.82509,1383.6033c-.92977,3.0034-1.81993,6.0009-2.625,8.9687-5.16255,42.6219 10.73086,68.4372 23.125,92.9375l1.1875-2.5c-6.07653-31.6918-24.51093-53.2431-21.6875-99.4062z" fill="#78540a"/>
<path d="m379.54384,1412.9783c-1.5394,8.355-2.58304,16.4823-3.1875,24.3437 .97514,29.2853 12.52558,48.7648 22.78125,65.4688 .35444-.754.70322-1.5182 1.0625-2.2813-7.86422-23.2128-22.71152-40.5766-20.65625-87.5312z" fill="#78540a"/>
<path d="m485.9375,1234.9688c6.08274,20.8846 5.41282,43.0643 3.03125,77.0937 .48141-1.2432.92689-2.4787 1.375-3.7187 6.29191-37.5213 7.20017-57.0768 1-73.375h-5.40625z" fill="#78540a"/>
<path d="m499.40625,1234.9688c1.4786,8.1737 2.24518,16.8683 2.5,26.9062 .46749-7.9527-.10812-17.7651-.84375-26.9062h-1.65625z" fill="#78540a"/>
<path d="m375.73134,1454.0095c.008,2.6187.0471,5.2155.15625,7.75 3.61896,19.7438 7.62061,39.5259 17.90625,52.5 1.24606-2.6778 2.48563-5.3577 3.8125-8.1875-12.62033-12.5668-16.38676-32.5264-21.875-52.0625z" fill="#78540a"/>
<g transform="translate(21.07509,921.92282)">
<path d="m370,708.79075c28.4328-61.51901 83.81566-173.77665 96.42857-204.28571 20.8249-50.37285 18.79276-96.01585 10.36387-142.84004-12.58425,30.6683-72.17056,120.93059-100.60336,182.4496-29.85362,68.80392-25.51156,133.41937-6.18908,164.67615z" fill="url(#radialGradient7935)"/>
<path d="m408.04394,483.27937c-.40901.77359-.81105,1.53964-1.21875,2.3125 2.92759,35.42033 9.15392,75.99529 15.92481,112.34563 .18958-.39519.40453-.79302.59375-1.1875 .41156-43.12657-6.38158-82.44766-15.29981-113.47063z" fill="#78540a"/>
<path d="m421.07958,460.56955c-.42848.79704-.85231,1.57618-1.28125,2.375 5.71474,36.80976 10.49955,75.30223 11.32667,117.55545 .26397-.55169.51858-1.10709.78125-1.65625 3.29247-43.27788.39662-85.67931-10.82667-118.2742z" fill="#78540a"/>
<path d="m429.03176,447.04325c-.15515.28729-.31338.58725-.46875.875 7.71603,32.72447 14.58046,65.88269 12.93699,110.738 1.00646-2.1184 1.96754-4.10807 2.9375-6.15625 7.68563-44.74613-2.51565-75.81823-15.40574-105.45675z" fill="#78540a"/>
<path d="m439.46801,429.23222c-.21125.39137-.41286.7946-.625,1.1875 7.61216,35.80074 16.84091,58.48763 16.28199,99.33028 .40309-.86892.73604-1.62689 1.125-2.46875 5.99002-46.729-5.4764-70.9796-16.78199-98.04903z" fill="#78540a"/>
<path d="m447.79635,415.12363-.25.46875c12.14595,33.40506 14.90656,55.50453 15.32865,97.15762 .76747-1.73133 1.42802-3.24175 2.0625-4.71875 4.87377-47.92951-4.70536-69.44757-17.14115-92.90762z" fill="#78540a"/>
<path d="m396.40059,504.37447c-.0318.0618-.062.12575-.0937.1875-6.87178,28.09448 3.98391,83.30436 14.19316,118.90678 .35381-.73724.70869-1.45034 1.0625-2.1875-.67933-41.41569-13.82894-77.90023-15.16191-116.90678z" fill="#78540a"/>
<path d="m385.91014,524.05072c-1.34686,2.72564-2.72022,5.47593-4,8.125-3.01523,39.54167 10.05477,83.65446 19.43361,110.41803 .66661-1.39191 1.33021-2.78984 2-4.1875-3.21033-36.5958-15.35094-76.16103-17.43361-114.35553z" fill="#78540a"/>
<path d="m372.375,553.40625c-.28914.73744-.56234,1.48262-.84375,2.21875-7.54972,42.71638 9.26267,75.4969 21.90625,103.46875 .34957-.73257.67985-1.38903 1.03125-2.125-5.87793-37.07688-21.42383-59.70975-22.09375-103.5625z" fill="#78540a"/>
<path d="m365.75,572.3125c-.92977,3.00344-1.81993,6.00087-2.625,8.96875-5.16255,42.62183 10.73086,68.43719 23.125,92.9375l1.1875-2.5c-6.07653-31.69184-24.51093-53.24317-21.6875-99.40625z" fill="#78540a"/>
<path d="m358.46875,601.6875c-1.5394,8.35497-2.58304,16.48229-3.1875,24.34375 .97514,29.28525 12.52558,48.76479 22.78125,65.46875 .35444-.75403.70322-1.51813 1.0625-2.28125-7.86422-23.21285-22.71152-40.57667-20.65625-87.53125z" fill="#78540a"/>
<path d="m456.15953,400.73266c-.14808.28072-.31955.56128-.46875.84375 15.5562,28.79311 15.43809,53.15788 12.21547,99.20484 .48141-1.24326.92689-2.47875 1.375-3.71875 9.32589-55.6141 6.8103-71.77457-13.12172-96.32984z" fill="#78540a"/>
<path d="m464.94034,385.13009c-.11297.22283-.19829.43153-.3125.65625 11.70447,21.74625 15.54324,38.85696 16.20178,64.79853 .70072-11.92022-.94203-28.06264-1.95462-39.77237-3.68525-10.94824-6.32947-15.36911-13.93466-25.68241z" fill="#78540a"/>
<path d="m354.65625,642.71875c.008,2.61867.0471,5.21549.15625,7.75 3.61896,19.7438 7.62061,39.52589 17.90625,52.5 1.24606-2.67782 2.48563-5.35776 3.8125-8.1875-12.62033-12.56684-16.38676-32.52646-21.875-52.0625z" fill="#78540a"/>
</g>
<g transform="translate(21.07509,1032.8572)">
<path d="m370,708.79075c28.4328-61.51901 83.81566-173.77665 96.42857-204.28571 20.8249-50.37285 18.79276-96.01585 10.36387-142.84004-12.58425,30.6683-72.17056,120.93059-100.60336,182.4496-29.85362,68.80392-25.51156,133.41937-6.18908,164.67615z" fill="url(#radialGradient7935)"/>
<path d="m408.04394,483.27937c-.40901.77359-.81105,1.53964-1.21875,2.3125 2.92759,35.42033 9.15392,75.99529 15.92481,112.34563 .18958-.39519.40453-.79302.59375-1.1875 .41156-43.12657-6.38158-82.44766-15.29981-113.47063z" fill="#78540a"/>
<path d="m421.07958,460.56955c-.42848.79704-.85231,1.57618-1.28125,2.375 5.71474,36.80976 10.49955,75.30223 11.32667,117.55545 .26397-.55169.51858-1.10709.78125-1.65625 3.29247-43.27788.39662-85.67931-10.82667-118.2742z" fill="#78540a"/>
<path d="m429.03176,447.04325c-.15515.28729-.31338.58725-.46875.875 7.71603,32.72447 14.58046,65.88269 12.93699,110.738 1.00646-2.1184 1.96754-4.10807 2.9375-6.15625 7.68563-44.74613-2.51565-75.81823-15.40574-105.45675z" fill="#78540a"/>
<path d="m439.46801,429.23222c-.21125.39137-.41286.7946-.625,1.1875 7.61216,35.80074 16.84091,58.48763 16.28199,99.33028 .40309-.86892.73604-1.62689 1.125-2.46875 5.99002-46.729-5.4764-70.9796-16.78199-98.04903z" fill="#78540a"/>
<path d="m447.79635,415.12363-.25.46875c12.14595,33.40506 14.90656,55.50453 15.32865,97.15762 .76747-1.73133 1.42802-3.24175 2.0625-4.71875 4.87377-47.92951-4.70536-69.44757-17.14115-92.90762z" fill="#78540a"/>
<path d="m396.40059,504.37447c-.0318.0618-.062.12575-.0937.1875-6.87178,28.09448 3.98391,83.30436 14.19316,118.90678 .35381-.73724.70869-1.45034 1.0625-2.1875-.67933-41.41569-13.82894-77.90023-15.16191-116.90678z" fill="#78540a"/>
<path d="m385.91014,524.05072c-1.34686,2.72564-2.72022,5.47593-4,8.125-3.01523,39.54167 10.05477,83.65446 19.43361,110.41803 .66661-1.39191 1.33021-2.78984 2-4.1875-3.21033-36.5958-15.35094-76.16103-17.43361-114.35553z" fill="#78540a"/>
<path d="m372.375,553.40625c-.28914.73744-.56234,1.48262-.84375,2.21875-7.54972,42.71638 9.26267,75.4969 21.90625,103.46875 .34957-.73257.67985-1.38903 1.03125-2.125-5.87793-37.07688-21.42383-59.70975-22.09375-103.5625z" fill="#78540a"/>
<path d="m365.75,572.3125c-.92977,3.00344-1.81993,6.00087-2.625,8.96875-5.16255,42.62183 10.73086,68.43719 23.125,92.9375l1.1875-2.5c-6.07653-31.69184-24.51093-53.24317-21.6875-99.40625z" fill="#78540a"/>
<path d="m358.46875,601.6875c-1.5394,8.35497-2.58304,16.48229-3.1875,24.34375 .97514,29.28525 12.52558,48.76479 22.78125,65.46875 .35444-.75403.70322-1.51813 1.0625-2.28125-7.86422-23.21285-22.71152-40.57667-20.65625-87.53125z" fill="#78540a"/>
<path d="m456.15953,400.73266c-.14808.28072-.31955.56128-.46875.84375 15.5562,28.79311 15.43809,53.15788 12.21547,99.20484 .48141-1.24326.92689-2.47875 1.375-3.71875 9.32589-55.6141 6.8103-71.77457-13.12172-96.32984z" fill="#78540a"/>
<path d="m464.94034,385.13009c-.11297.22283-.19829.43153-.3125.65625 11.70447,21.74625 15.54324,38.85696 16.20178,64.79853 .70072-11.92022-.94203-28.06264-1.95462-39.77237-3.68525-10.94824-6.32947-15.36911-13.93466-25.68241z" fill="#78540a"/>
<path d="m354.65625,642.71875c.008,2.61867.0471,5.21549.15625,7.75 3.61896,19.7438 7.62061,39.52589 17.90625,52.5 1.24606-2.67782 2.48563-5.35776 3.8125-8.1875-12.62033-12.56684-16.38676-32.52646-21.875-52.0625z" fill="#78540a"/>
</g>
<g transform="translate(21.07509,1144.4892)">
<path d="m370,708.79075c28.4328-61.51901 83.81566-173.77665 96.42857-204.28571 20.8249-50.37285 18.79276-96.01585 10.36387-142.84004-12.58425,30.6683-72.17056,120.93059-100.60336,182.4496-29.85362,68.80392-25.51156,133.41937-6.18908,164.67615z" fill="url(#radialGradient7935)"/>
<path d="m408.04394,483.27937c-.40901.77359-.81105,1.53964-1.21875,2.3125 2.92759,35.42033 9.15392,75.99529 15.92481,112.34563 .18958-.39519.40453-.79302.59375-1.1875 .41156-43.12657-6.38158-82.44766-15.29981-113.47063z" fill="#78540a"/>
<path d="m421.07958,460.56955c-.42848.79704-.85231,1.57618-1.28125,2.375 5.71474,36.80976 10.49955,75.30223 11.32667,117.55545 .26397-.55169.51858-1.10709.78125-1.65625 3.29247-43.27788.39662-85.67931-10.82667-118.2742z" fill="#78540a"/>
<path d="m429.03176,447.04325c-.15515.28729-.31338.58725-.46875.875 7.71603,32.72447 14.58046,65.88269 12.93699,110.738 1.00646-2.1184 1.96754-4.10807 2.9375-6.15625 7.68563-44.74613-2.51565-75.81823-15.40574-105.45675z" fill="#78540a"/>
<path d="m439.46801,429.23222c-.21125.39137-.41286.7946-.625,1.1875 7.61216,35.80074 16.84091,58.48763 16.28199,99.33028 .40309-.86892.73604-1.62689 1.125-2.46875 5.99002-46.729-5.4764-70.9796-16.78199-98.04903z" fill="#78540a"/>
<path d="m447.79635,415.12363-.25.46875c12.14595,33.40506 14.90656,55.50453 15.32865,97.15762 .76747-1.73133 1.42802-3.24175 2.0625-4.71875 4.87377-47.92951-4.70536-69.44757-17.14115-92.90762z" fill="#78540a"/>
<path d="m396.40059,504.37447c-.0318.0618-.062.12575-.0937.1875-6.87178,28.09448 3.98391,83.30436 14.19316,118.90678 .35381-.73724.70869-1.45034 1.0625-2.1875-.67933-41.41569-13.82894-77.90023-15.16191-116.90678z" fill="#78540a"/>
<path d="m385.91014,524.05072c-1.34686,2.72564-2.72022,5.47593-4,8.125-3.01523,39.54167 10.05477,83.65446 19.43361,110.41803 .66661-1.39191 1.33021-2.78984 2-4.1875-3.21033-36.5958-15.35094-76.16103-17.43361-114.35553z" fill="#78540a"/>
<path d="m372.375,553.40625c-.28914.73744-.56234,1.48262-.84375,2.21875-7.54972,42.71638 9.26267,75.4969 21.90625,103.46875 .34957-.73257.67985-1.38903 1.03125-2.125-5.87793-37.07688-21.42383-59.70975-22.09375-103.5625z" fill="#78540a"/>
<path d="m365.75,572.3125c-.92977,3.00344-1.81993,6.00087-2.625,8.96875-5.16255,42.62183 10.73086,68.43719 23.125,92.9375l1.1875-2.5c-6.07653-31.69184-24.51093-53.24317-21.6875-99.40625z" fill="#78540a"/>
<path d="m358.46875,601.6875c-1.5394,8.35497-2.58304,16.48229-3.1875,24.34375 .97514,29.28525 12.52558,48.76479 22.78125,65.46875 .35444-.75403.70322-1.51813 1.0625-2.28125-7.86422-23.21285-22.71152-40.57667-20.65625-87.53125z" fill="#78540a"/>
<path d="m456.15953,400.73266c-.14808.28072-.31955.56128-.46875.84375 15.5562,28.79311 15.43809,53.15788 12.21547,99.20484 .48141-1.24326.92689-2.47875 1.375-3.71875 9.32589-55.6141 6.8103-71.77457-13.12172-96.32984z" fill="#78540a"/>
<path d="m464.94034,385.13009c-.11297.22283-.19829.43153-.3125.65625 11.70447,21.74625 15.54324,38.85696 16.20178,64.79853 .70072-11.92022-.94203-28.06264-1.95462-39.77237-3.68525-10.94824-6.32947-15.36911-13.93466-25.68241z" fill="#78540a"/>
<path d="m354.65625,642.71875c.008,2.61867.0471,5.21549.15625,7.75 3.61896,19.7438 7.62061,39.52589 17.90625,52.5 1.24606-2.67782 2.48563-5.35776 3.8125-8.1875-12.62033-12.56684-16.38676-32.52646-21.875-52.0625z" fill="#78540a"/>
</g>
<g transform="translate(21.07509,1257.4002)">
<path d="m370,708.79075c28.4328-61.51901 83.81566-173.77665 96.42857-204.28571 20.8249-50.37285 18.79276-96.01585 10.36387-142.84004-12.58425,30.6683-72.17056,120.93059-100.60336,182.4496-29.85362,68.80392-25.51156,133.41937-6.18908,164.67615z" fill="url(#radialGradient7935)"/>
<path d="m408.04394,483.27937c-.40901.77359-.81105,1.53964-1.21875,2.3125 2.92759,35.42033 9.15392,75.99529 15.92481,112.34563 .18958-.39519.40453-.79302.59375-1.1875 .41156-43.12657-6.38158-82.44766-15.29981-113.47063z" fill="#78540a"/>
<path d="m421.07958,460.56955c-.42848.79704-.85231,1.57618-1.28125,2.375 5.71474,36.80976 10.49955,75.30223 11.32667,117.55545 .26397-.55169.51858-1.10709.78125-1.65625 3.29247-43.27788.39662-85.67931-10.82667-118.2742z" fill="#78540a"/>
<path d="m429.03176,447.04325c-.15515.28729-.31338.58725-.46875.875 7.71603,32.72447 14.58046,65.88269 12.93699,110.738 1.00646-2.1184 1.96754-4.10807 2.9375-6.15625 7.68563-44.74613-2.51565-75.81823-15.40574-105.45675z" fill="#78540a"/>
<path d="m439.46801,429.23222c-.21125.39137-.41286.7946-.625,1.1875 7.61216,35.80074 16.84091,58.48763 16.28199,99.33028 .40309-.86892.73604-1.62689 1.125-2.46875 5.99002-46.729-5.4764-70.9796-16.78199-98.04903z" fill="#78540a"/>
<path d="m447.79635,415.12363-.25.46875c12.14595,33.40506 14.90656,55.50453 15.32865,97.15762 .76747-1.73133 1.42802-3.24175 2.0625-4.71875 4.87377-47.92951-4.70536-69.44757-17.14115-92.90762z" fill="#78540a"/>
<path d="m396.40059,504.37447c-.0318.0618-.062.12575-.0937.1875-6.87178,28.09448 3.98391,83.30436 14.19316,118.90678 .35381-.73724.70869-1.45034 1.0625-2.1875-.67933-41.41569-13.82894-77.90023-15.16191-116.90678z" fill="#78540a"/>
<path d="m385.91014,524.05072c-1.34686,2.72564-2.72022,5.47593-4,8.125-3.01523,39.54167 10.05477,83.65446 19.43361,110.41803 .66661-1.39191 1.33021-2.78984 2-4.1875-3.21033-36.5958-15.35094-76.16103-17.43361-114.35553z" fill="#78540a"/>
<path d="m372.375,553.40625c-.28914.73744-.56234,1.48262-.84375,2.21875-7.54972,42.71638 9.26267,75.4969 21.90625,103.46875 .34957-.73257.67985-1.38903 1.03125-2.125-5.87793-37.07688-21.42383-59.70975-22.09375-103.5625z" fill="#78540a"/>
<path d="m365.75,572.3125c-.92977,3.00344-1.81993,6.00087-2.625,8.96875-5.16255,42.62183 10.73086,68.43719 23.125,92.9375l1.1875-2.5c-6.07653-31.69184-24.51093-53.24317-21.6875-99.40625z" fill="#78540a"/>
<path d="m358.46875,601.6875c-1.5394,8.35497-2.58304,16.48229-3.1875,24.34375 .97514,29.28525 12.52558,48.76479 22.78125,65.46875 .35444-.75403.70322-1.51813 1.0625-2.28125-7.86422-23.21285-22.71152-40.57667-20.65625-87.53125z" fill="#78540a"/>
<path d="m456.15953,400.73266c-.14808.28072-.31955.56128-.46875.84375 15.5562,28.79311 15.43809,53.15788 12.21547,99.20484 .48141-1.24326.92689-2.47875 1.375-3.71875 9.32589-55.6141 6.8103-71.77457-13.12172-96.32984z" fill="#78540a"/>
<path d="m464.94034,385.13009c-.11297.22283-.19829.43153-.3125.65625 11.70447,21.74625 15.54324,38.85696 16.20178,64.79853 .70072-11.92022-.94203-28.06264-1.95462-39.77237-3.68525-10.94824-6.32947-15.36911-13.93466-25.68241z" fill="#78540a"/>
<path d="m354.65625,642.71875c.008,2.61867.0471,5.21549.15625,7.75 3.61896,19.7438 7.62061,39.52589 17.90625,52.5 1.24606-2.67782 2.48563-5.35776 3.8125-8.1875-12.62033-12.56684-16.38676-32.52646-21.875-52.0625z" fill="#78540a"/>
</g>
<g transform="translate(21.07509,1369.0322)">
<path d="m370,708.79075c28.4328-61.51901 83.81566-173.77665 96.42857-204.28571 20.8249-50.37285 18.79276-96.01585 10.36387-142.84004-12.58425,30.6683-72.17056,120.93059-100.60336,182.4496-29.85362,68.80392-25.51156,133.41937-6.18908,164.67615z" fill="url(#radialGradient7935)"/>
<path d="m408.04394,483.27937c-.40901.77359-.81105,1.53964-1.21875,2.3125 2.92759,35.42033 9.15392,75.99529 15.92481,112.34563 .18958-.39519.40453-.79302.59375-1.1875 .41156-43.12657-6.38158-82.44766-15.29981-113.47063z" fill="#78540a"/>
<path d="m421.07958,460.56955c-.42848.79704-.85231,1.57618-1.28125,2.375 5.71474,36.80976 10.49955,75.30223 11.32667,117.55545 .26397-.55169.51858-1.10709.78125-1.65625 3.29247-43.27788.39662-85.67931-10.82667-118.2742z" fill="#78540a"/>
<path d="m429.03176,447.04325c-.15515.28729-.31338.58725-.46875.875 7.71603,32.72447 14.58046,65.88269 12.93699,110.738 1.00646-2.1184 1.96754-4.10807 2.9375-6.15625 7.68563-44.74613-2.51565-75.81823-15.40574-105.45675z" fill="#78540a"/>
<path d="m439.46801,429.23222c-.21125.39137-.41286.7946-.625,1.1875 7.61216,35.80074 16.84091,58.48763 16.28199,99.33028 .40309-.86892.73604-1.62689 1.125-2.46875 5.99002-46.729-5.4764-70.9796-16.78199-98.04903z" fill="#78540a"/>
<path d="m447.79635,415.12363-.25.46875c12.14595,33.40506 14.90656,55.50453 15.32865,97.15762 .76747-1.73133 1.42802-3.24175 2.0625-4.71875 4.87377-47.92951-4.70536-69.44757-17.14115-92.90762z" fill="#78540a"/>
<path d="m396.40059,504.37447c-.0318.0618-.062.12575-.0937.1875-6.87178,28.09448 3.98391,83.30436 14.19316,118.90678 .35381-.73724.70869-1.45034 1.0625-2.1875-.67933-41.41569-13.82894-77.90023-15.16191-116.90678z" fill="#78540a"/>
<path d="m385.91014,524.05072c-1.34686,2.72564-2.72022,5.47593-4,8.125-3.01523,39.54167 10.05477,83.65446 19.43361,110.41803 .66661-1.39191 1.33021-2.78984 2-4.1875-3.21033-36.5958-15.35094-76.16103-17.43361-114.35553z" fill="#78540a"/>
<path d="m372.375,553.40625c-.28914.73744-.56234,1.48262-.84375,2.21875-7.54972,42.71638 9.26267,75.4969 21.90625,103.46875 .34957-.73257.67985-1.38903 1.03125-2.125-5.87793-37.07688-21.42383-59.70975-22.09375-103.5625z" fill="#78540a"/>
<path d="m365.75,572.3125c-.92977,3.00344-1.81993,6.00087-2.625,8.96875-5.16255,42.62183 10.73086,68.43719 23.125,92.9375l1.1875-2.5c-6.07653-31.69184-24.51093-53.24317-21.6875-99.40625z" fill="#78540a"/>
<path d="m358.46875,601.6875c-1.5394,8.35497-2.58304,16.48229-3.1875,24.34375 .97514,29.28525 12.52558,48.76479 22.78125,65.46875 .35444-.75403.70322-1.51813 1.0625-2.28125-7.86422-23.21285-22.71152-40.57667-20.65625-87.53125z" fill="#78540a"/>
<path d="m456.15953,400.73266c-.14808.28072-.31955.56128-.46875.84375 15.5562,28.79311 15.43809,53.15788 12.21547,99.20484 .48141-1.24326.92689-2.47875 1.375-3.71875 9.32589-55.6141 6.8103-71.77457-13.12172-96.32984z" fill="#78540a"/>
<path d="m464.94034,385.13009c-.11297.22283-.19829.43153-.3125.65625 11.70447,21.74625 15.54324,38.85696 16.20178,64.79853 .70072-11.92022-.94203-28.06264-1.95462-39.77237-3.68525-10.94824-6.32947-15.36911-13.93466-25.68241z" fill="#78540a"/>
<path d="m354.65625,642.71875c.008,2.61867.0471,5.21549.15625,7.75 3.61896,19.7438 7.62061,39.52589 17.90625,52.5 1.24606-2.67782 2.48563-5.35776 3.8125-8.1875-12.62033-12.56684-16.38676-32.52646-21.875-52.0625z" fill="#78540a"/>
</g>
<g transform="translate(21.07509,1481.3949)">
<path d="m370,708.79075c28.4328-61.51901 83.81566-173.77665 96.42857-204.28571 20.8249-50.37285 18.79276-96.01585 10.36387-142.84004-12.58425,30.6683-72.17056,120.93059-100.60336,182.4496-29.85362,68.80392-25.51156,133.41937-6.18908,164.67615z" fill="url(#radialGradient7935)"/>
<path d="m408.04394,483.27937c-.40901.77359-.81105,1.53964-1.21875,2.3125 2.92759,35.42033 9.15392,75.99529 15.92481,112.34563 .18958-.39519.40453-.79302.59375-1.1875 .41156-43.12657-6.38158-82.44766-15.29981-113.47063z" fill="#78540a"/>
<path d="m421.07958,460.56955c-.42848.79704-.85231,1.57618-1.28125,2.375 5.71474,36.80976 10.49955,75.30223 11.32667,117.55545 .26397-.55169.51858-1.10709.78125-1.65625 3.29247-43.27788.39662-85.67931-10.82667-118.2742z" fill="#78540a"/>
<path d="m429.03176,447.04325c-.15515.28729-.31338.58725-.46875.875 7.71603,32.72447 14.58046,65.88269 12.93699,110.738 1.00646-2.1184 1.96754-4.10807 2.9375-6.15625 7.68563-44.74613-2.51565-75.81823-15.40574-105.45675z" fill="#78540a"/>
<path d="m439.46801,429.23222c-.21125.39137-.41286.7946-.625,1.1875 7.61216,35.80074 16.84091,58.48763 16.28199,99.33028 .40309-.86892.73604-1.62689 1.125-2.46875 5.99002-46.729-5.4764-70.9796-16.78199-98.04903z" fill="#78540a"/>
<path d="m447.79635,415.12363-.25.46875c12.14595,33.40506 14.90656,55.50453 15.32865,97.15762 .76747-1.73133 1.42802-3.24175 2.0625-4.71875 4.87377-47.92951-4.70536-69.44757-17.14115-92.90762z" fill="#78540a"/>
<path d="m396.40059,504.37447c-.0318.0618-.062.12575-.0937.1875-6.87178,28.09448 3.98391,83.30436 14.19316,118.90678 .35381-.73724.70869-1.45034 1.0625-2.1875-.67933-41.41569-13.82894-77.90023-15.16191-116.90678z" fill="#78540a"/>
<path d="m385.91014,524.05072c-1.34686,2.72564-2.72022,5.47593-4,8.125-3.01523,39.54167 10.05477,83.65446 19.43361,110.41803 .66661-1.39191 1.33021-2.78984 2-4.1875-3.21033-36.5958-15.35094-76.16103-17.43361-114.35553z" fill="#78540a"/>
<path d="m372.375,553.40625c-.28914.73744-.56234,1.48262-.84375,2.21875-7.54972,42.71638 9.26267,75.4969 21.90625,103.46875 .34957-.73257.67985-1.38903 1.03125-2.125-5.87793-37.07688-21.42383-59.70975-22.09375-103.5625z" fill="#78540a"/>
<path d="m365.75,572.3125c-.92977,3.00344-1.81993,6.00087-2.625,8.96875-5.16255,42.62183 10.73086,68.43719 23.125,92.9375l1.1875-2.5c-6.07653-31.69184-24.51093-53.24317-21.6875-99.40625z" fill="#78540a"/>
<path d="m358.46875,601.6875c-1.5394,8.35497-2.58304,16.48229-3.1875,24.34375 .97514,29.28525 12.52558,48.76479 22.78125,65.46875 .35444-.75403.70322-1.51813 1.0625-2.28125-7.86422-23.21285-22.71152-40.57667-20.65625-87.53125z" fill="#78540a"/>
<path d="m456.15953,400.73266c-.14808.28072-.31955.56128-.46875.84375 15.5562,28.79311 15.43809,53.15788 12.21547,99.20484 .48141-1.24326.92689-2.47875 1.375-3.71875 9.32589-55.6141 6.8103-71.77457-13.12172-96.32984z" fill="#78540a"/>
<path d="m464.94034,385.13009c-.11297.22283-.19829.43153-.3125.65625 11.70447,21.74625 15.54324,38.85696 16.20178,64.79853 .70072-11.92022-.94203-28.06264-1.95462-39.77237-3.68525-10.94824-6.32947-15.36911-13.93466-25.68241z" fill="#78540a"/>
<path d="m354.65625,642.71875c.008,2.61867.0471,5.21549.15625,7.75 3.61896,19.7438 7.62061,39.52589 17.90625,52.5 1.24606-2.67782 2.48563-5.35776 3.8125-8.1875-12.62033-12.56684-16.38676-32.52646-21.875-52.0625z" fill="#78540a"/>
</g>
<g transform="translate(21.07509,1593.0269)">
<path d="m370,708.79075c28.4328-61.51901 83.81566-173.77665 96.42857-204.28571 20.8249-50.37285 18.79276-96.01585 10.36387-142.84004-12.58425,30.6683-72.17056,120.93059-100.60336,182.4496-29.85362,68.80392-25.51156,133.41937-6.18908,164.67615z" fill="url(#radialGradient7935)"/>
<path d="m408.04394,483.27937c-.40901.77359-.81105,1.53964-1.21875,2.3125 2.92759,35.42033 9.15392,75.99529 15.92481,112.34563 .18958-.39519.40453-.79302.59375-1.1875 .41156-43.12657-6.38158-82.44766-15.29981-113.47063z" fill="#78540a"/>
<path d="m421.07958,460.56955c-.42848.79704-.85231,1.57618-1.28125,2.375 5.71474,36.80976 10.49955,75.30223 11.32667,117.55545 .26397-.55169.51858-1.10709.78125-1.65625 3.29247-43.27788.39662-85.67931-10.82667-118.2742z" fill="#78540a"/>
<path d="m429.03176,447.04325c-.15515.28729-.31338.58725-.46875.875 7.71603,32.72447 14.58046,65.88269 12.93699,110.738 1.00646-2.1184 1.96754-4.10807 2.9375-6.15625 7.68563-44.74613-2.51565-75.81823-15.40574-105.45675z" fill="#78540a"/>
<path d="m439.46801,429.23222c-.21125.39137-.41286.7946-.625,1.1875 7.61216,35.80074 16.84091,58.48763 16.28199,99.33028 .40309-.86892.73604-1.62689 1.125-2.46875 5.99002-46.729-5.4764-70.9796-16.78199-98.04903z" fill="#78540a"/>
<path d="m447.79635,415.12363-.25.46875c12.14595,33.40506 14.90656,55.50453 15.32865,97.15762 .76747-1.73133 1.42802-3.24175 2.0625-4.71875 4.87377-47.92951-4.70536-69.44757-17.14115-92.90762z" fill="#78540a"/>
<path d="m396.40059,504.37447c-.0318.0618-.062.12575-.0937.1875-6.87178,28.09448 3.98391,83.30436 14.19316,118.90678 .35381-.73724.70869-1.45034 1.0625-2.1875-.67933-41.41569-13.82894-77.90023-15.16191-116.90678z" fill="#78540a"/>
<path d="m385.91014,524.05072c-1.34686,2.72564-2.72022,5.47593-4,8.125-3.01523,39.54167 10.05477,83.65446 19.43361,110.41803 .66661-1.39191 1.33021-2.78984 2-4.1875-3.21033-36.5958-15.35094-76.16103-17.43361-114.35553z" fill="#78540a"/>
<path d="m372.375,553.40625c-.28914.73744-.56234,1.48262-.84375,2.21875-7.54972,42.71638 9.26267,75.4969 21.90625,103.46875 .34957-.73257.67985-1.38903 1.03125-2.125-5.87793-37.07688-21.42383-59.70975-22.09375-103.5625z" fill="#78540a"/>
<path d="m365.75,572.3125c-.92977,3.00344-1.81993,6.00087-2.625,8.96875-5.16255,42.62183 10.73086,68.43719 23.125,92.9375l1.1875-2.5c-6.07653-31.69184-24.51093-53.24317-21.6875-99.40625z" fill="#78540a"/>
<path d="m358.46875,601.6875c-1.5394,8.35497-2.58304,16.48229-3.1875,24.34375 .97514,29.28525 12.52558,48.76479 22.78125,65.46875 .35444-.75403.70322-1.51813 1.0625-2.28125-7.86422-23.21285-22.71152-40.57667-20.65625-87.53125z" fill="#78540a"/>
<path d="m456.15953,400.73266c-.14808.28072-.31955.56128-.46875.84375 15.5562,28.79311 15.43809,53.15788 12.21547,99.20484 .48141-1.24326.92689-2.47875 1.375-3.71875 9.32589-55.6141 6.8103-71.77457-13.12172-96.32984z" fill="#78540a"/>
<path d="m464.94034,385.13009c-.11297.22283-.19829.43153-.3125.65625 11.70447,21.74625 15.54324,38.85696 16.20178,64.79853 .70072-11.92022-.94203-28.06264-1.95462-39.77237-3.68525-10.94824-6.32947-15.36911-13.93466-25.68241z" fill="#78540a"/>
<path d="m354.65625,642.71875c.008,2.61867.0471,5.21549.15625,7.75 3.61896,19.7438 7.62061,39.52589 17.90625,52.5 1.24606-2.67782 2.48563-5.35776 3.8125-8.1875-12.62033-12.56684-16.38676-32.52646-21.875-52.0625z" fill="#78540a"/>
</g>
<g transform="translate(21.07509,1703.9379)">
<path d="m370,708.79075c28.4328-61.51901 83.81566-173.77665 96.42857-204.28571 20.8249-50.37285 18.79276-96.01585 10.36387-142.84004-12.58425,30.6683-72.17056,120.93059-100.60336,182.4496-29.85362,68.80392-25.51156,133.41937-6.18908,164.67615z" fill="url(#radialGradient7935)"/>
<path d="m408.04394,483.27937c-.40901.77359-.81105,1.53964-1.21875,2.3125 2.92759,35.42033 9.15392,75.99529 15.92481,112.34563 .18958-.39519.40453-.79302.59375-1.1875 .41156-43.12657-6.38158-82.44766-15.29981-113.47063z" fill="#78540a"/>
<path d="m421.07958,460.56955c-.42848.79704-.85231,1.57618-1.28125,2.375 5.71474,36.80976 10.49955,75.30223 11.32667,117.55545 .26397-.55169.51858-1.10709.78125-1.65625 3.29247-43.27788.39662-85.67931-10.82667-118.2742z" fill="#78540a"/>
<path d="m429.03176,447.04325c-.15515.28729-.31338.58725-.46875.875 7.71603,32.72447 14.58046,65.88269 12.93699,110.738 1.00646-2.1184 1.96754-4.10807 2.9375-6.15625 7.68563-44.74613-2.51565-75.81823-15.40574-105.45675z" fill="#78540a"/>
<path d="m439.46801,429.23222c-.21125.39137-.41286.7946-.625,1.1875 7.61216,35.80074 16.84091,58.48763 16.28199,99.33028 .40309-.86892.73604-1.62689 1.125-2.46875 5.99002-46.729-5.4764-70.9796-16.78199-98.04903z" fill="#78540a"/>
<path d="m447.79635,415.12363-.25.46875c12.14595,33.40506 14.90656,55.50453 15.32865,97.15762 .76747-1.73133 1.42802-3.24175 2.0625-4.71875 4.87377-47.92951-4.70536-69.44757-17.14115-92.90762z" fill="#78540a"/>
<path d="m396.40059,504.37447c-.0318.0618-.062.12575-.0937.1875-6.87178,28.09448 3.98391,83.30436 14.19316,118.90678 .35381-.73724.70869-1.45034 1.0625-2.1875-.67933-41.41569-13.82894-77.90023-15.16191-116.90678z" fill="#78540a"/>
<path d="m385.91014,524.05072c-1.34686,2.72564-2.72022,5.47593-4,8.125-3.01523,39.54167 10.05477,83.65446 19.43361,110.41803 .66661-1.39191 1.33021-2.78984 2-4.1875-3.21033-36.5958-15.35094-76.16103-17.43361-114.35553z" fill="#78540a"/>
<path d="m372.375,553.40625c-.28914.73744-.56234,1.48262-.84375,2.21875-7.54972,42.71638 9.26267,75.4969 21.90625,103.46875 .34957-.73257.67985-1.38903 1.03125-2.125-5.87793-37.07688-21.42383-59.70975-22.09375-103.5625z" fill="#78540a"/>
<path d="m365.75,572.3125c-.92977,3.00344-1.81993,6.00087-2.625,8.96875-5.16255,42.62183 10.73086,68.43719 23.125,92.9375l1.1875-2.5c-6.07653-31.69184-24.51093-53.24317-21.6875-99.40625z" fill="#78540a"/>
<path d="m358.46875,601.6875c-1.5394,8.35497-2.58304,16.48229-3.1875,24.34375 .97514,29.28525 12.52558,48.76479 22.78125,65.46875 .35444-.75403.70322-1.51813 1.0625-2.28125-7.86422-23.21285-22.71152-40.57667-20.65625-87.53125z" fill="#78540a"/>
<path d="m456.15953,400.73266c-.14808.28072-.31955.56128-.46875.84375 15.5562,28.79311 15.43809,53.15788 12.21547,99.20484 .48141-1.24326.92689-2.47875 1.375-3.71875 9.32589-55.6141 6.8103-71.77457-13.12172-96.32984z" fill="#78540a"/>
<path d="m464.94034,385.13009c-.11297.22283-.19829.43153-.3125.65625 11.70447,21.74625 15.54324,38.85696 16.20178,64.79853 .70072-11.92022-.94203-28.06264-1.95462-39.77237-3.68525-10.94824-6.32947-15.36911-13.93466-25.68241z" fill="#78540a"/>
<path d="m354.65625,642.71875c.008,2.61867.0471,5.21549.15625,7.75 3.61896,19.7438 7.62061,39.52589 17.90625,52.5 1.24606-2.67782 2.48563-5.35776 3.8125-8.1875-12.62033-12.56684-16.38676-32.52646-21.875-52.0625z" fill="#78540a"/>
</g>
<g transform="translate(21.07509,1814.57)">
<path d="m370,708.79075c28.4328-61.51901 83.81566-173.77665 96.42857-204.28571 20.8249-50.37285 18.79276-96.01585 10.36387-142.84004-12.58425,30.6683-72.17056,120.93059-100.60336,182.4496-29.85362,68.80392-25.51156,133.41937-6.18908,164.67615z" fill="url(#radialGradient7935)"/>
<path d="m408.04394,483.27937c-.40901.77359-.81105,1.53964-1.21875,2.3125 2.92759,35.42033 9.15392,75.99529 15.92481,112.34563 .18958-.39519.40453-.79302.59375-1.1875 .41156-43.12657-6.38158-82.44766-15.29981-113.47063z" fill="#78540a"/>
<path d="m421.07958,460.56955c-.42848.79704-.85231,1.57618-1.28125,2.375 5.71474,36.80976 10.49955,75.30223 11.32667,117.55545 .26397-.55169.51858-1.10709.78125-1.65625 3.29247-43.27788.39662-85.67931-10.82667-118.2742z" fill="#78540a"/>
<path d="m429.03176,447.04325c-.15515.28729-.31338.58725-.46875.875 7.71603,32.72447 14.58046,65.88269 12.93699,110.738 1.00646-2.1184 1.96754-4.10807 2.9375-6.15625 7.68563-44.74613-2.51565-75.81823-15.40574-105.45675z" fill="#78540a"/>
<path d="m439.46801,429.23222c-.21125.39137-.41286.7946-.625,1.1875 7.61216,35.80074 16.84091,58.48763 16.28199,99.33028 .40309-.86892.73604-1.62689 1.125-2.46875 5.99002-46.729-5.4764-70.9796-16.78199-98.04903z" fill="#78540a"/>
<path d="m447.79635,415.12363-.25.46875c12.14595,33.40506 14.90656,55.50453 15.32865,97.15762 .76747-1.73133 1.42802-3.24175 2.0625-4.71875 4.87377-47.92951-4.70536-69.44757-17.14115-92.90762z" fill="#78540a"/>
<path d="m396.40059,504.37447c-.0318.0618-.062.12575-.0937.1875-6.87178,28.09448 3.98391,83.30436 14.19316,118.90678 .35381-.73724.70869-1.45034 1.0625-2.1875-.67933-41.41569-13.82894-77.90023-15.16191-116.90678z" fill="#78540a"/>
<path d="m385.91014,524.05072c-1.34686,2.72564-2.72022,5.47593-4,8.125-3.01523,39.54167 10.05477,83.65446 19.43361,110.41803 .66661-1.39191 1.33021-2.78984 2-4.1875-3.21033-36.5958-15.35094-76.16103-17.43361-114.35553z" fill="#78540a"/>
<path d="m372.375,553.40625c-.28914.73744-.56234,1.48262-.84375,2.21875-7.54972,42.71638 9.26267,75.4969 21.90625,103.46875 .34957-.73257.67985-1.38903 1.03125-2.125-5.87793-37.07688-21.42383-59.70975-22.09375-103.5625z" fill="#78540a"/>
<path d="m365.75,572.3125c-.92977,3.00344-1.81993,6.00087-2.625,8.96875-5.16255,42.62183 10.73086,68.43719 23.125,92.9375l1.1875-2.5c-6.07653-31.69184-24.51093-53.24317-21.6875-99.40625z" fill="#78540a"/>
<path d="m358.46875,601.6875c-1.5394,8.35497-2.58304,16.48229-3.1875,24.34375 .97514,29.28525 12.52558,48.76479 22.78125,65.46875 .35444-.75403.70322-1.51813 1.0625-2.28125-7.86422-23.21285-22.71152-40.57667-20.65625-87.53125z" fill="#78540a"/>
<path d="m456.15953,400.73266c-.14808.28072-.31955.56128-.46875.84375 15.5562,28.79311 15.43809,53.15788 12.21547,99.20484 .48141-1.24326.92689-2.47875 1.375-3.71875 9.32589-55.6141 6.8103-71.77457-13.12172-96.32984z" fill="#78540a"/>
<path d="m464.94034,385.13009c-.11297.22283-.19829.43153-.3125.65625 11.70447,21.74625 15.54324,38.85696 16.20178,64.79853 .70072-11.92022-.94203-28.06264-1.95462-39.77237-3.68525-10.94824-6.32947-15.36911-13.93466-25.68241z" fill="#78540a"/>
<path d="m354.65625,642.71875c.008,2.61867.0471,5.21549.15625,7.75 3.61896,19.7438 7.62061,39.52589 17.90625,52.5 1.24606-2.67782 2.48563-5.35776 3.8125-8.1875-12.62033-12.56684-16.38676-32.52646-21.875-52.0625z" fill="#78540a"/>
</g>
<g transform="translate(21.07509,1925.5043)">
<path d="m370,708.79075c28.4328-61.51901 83.81566-173.77665 96.42857-204.28571 20.8249-50.37285 18.79276-96.01585 10.36387-142.84004-12.58425,30.6683-72.17056,120.93059-100.60336,182.4496-29.85362,68.80392-25.51156,133.41937-6.18908,164.67615z" fill="url(#radialGradient7935)"/>
<path d="m408.04394,483.27937c-.40901.77359-.81105,1.53964-1.21875,2.3125 2.92759,35.42033 9.15392,75.99529 15.92481,112.34563 .18958-.39519.40453-.79302.59375-1.1875 .41156-43.12657-6.38158-82.44766-15.29981-113.47063z" fill="#78540a"/>
<path d="m421.07958,460.56955c-.42848.79704-.85231,1.57618-1.28125,2.375 5.71474,36.80976 10.49955,75.30223 11.32667,117.55545 .26397-.55169.51858-1.10709.78125-1.65625 3.29247-43.27788.39662-85.67931-10.82667-118.2742z" fill="#78540a"/>
<path d="m429.03176,447.04325c-.15515.28729-.31338.58725-.46875.875 7.71603,32.72447 14.58046,65.88269 12.93699,110.738 1.00646-2.1184 1.96754-4.10807 2.9375-6.15625 7.68563-44.74613-2.51565-75.81823-15.40574-105.45675z" fill="#78540a"/>
<path d="m439.46801,429.23222c-.21125.39137-.41286.7946-.625,1.1875 7.61216,35.80074 16.84091,58.48763 16.28199,99.33028 .40309-.86892.73604-1.62689 1.125-2.46875 5.99002-46.729-5.4764-70.9796-16.78199-98.04903z" fill="#78540a"/>
<path d="m447.79635,415.12363-.25.46875c12.14595,33.40506 14.90656,55.50453 15.32865,97.15762 .76747-1.73133 1.42802-3.24175 2.0625-4.71875 4.87377-47.92951-4.70536-69.44757-17.14115-92.90762z" fill="#78540a"/>
<path d="m396.40059,504.37447c-.0318.0618-.062.12575-.0937.1875-6.87178,28.09448 3.98391,83.30436 14.19316,118.90678 .35381-.73724.70869-1.45034 1.0625-2.1875-.67933-41.41569-13.82894-77.90023-15.16191-116.90678z" fill="#78540a"/>
<path d="m385.91014,524.05072c-1.34686,2.72564-2.72022,5.47593-4,8.125-3.01523,39.54167 10.05477,83.65446 19.43361,110.41803 .66661-1.39191 1.33021-2.78984 2-4.1875-3.21033-36.5958-15.35094-76.16103-17.43361-114.35553z" fill="#78540a"/>
<path d="m372.375,553.40625c-.28914.73744-.56234,1.48262-.84375,2.21875-7.54972,42.71638 9.26267,75.4969 21.90625,103.46875 .34957-.73257.67985-1.38903 1.03125-2.125-5.87793-37.07688-21.42383-59.70975-22.09375-103.5625z" fill="#78540a"/>
<path d="m365.75,572.3125c-.92977,3.00344-1.81993,6.00087-2.625,8.96875-5.16255,42.62183 10.73086,68.43719 23.125,92.9375l1.1875-2.5c-6.07653-31.69184-24.51093-53.24317-21.6875-99.40625z" fill="#78540a"/>
<path d="m358.46875,601.6875c-1.5394,8.35497-2.58304,16.48229-3.1875,24.34375 .97514,29.28525 12.52558,48.76479 22.78125,65.46875 .35444-.75403.70322-1.51813 1.0625-2.28125-7.86422-23.21285-22.71152-40.57667-20.65625-87.53125z" fill="#78540a"/>
<path d="m456.15953,400.73266c-.14808.28072-.31955.56128-.46875.84375 15.5562,28.79311 15.43809,53.15788 12.21547,99.20484 .48141-1.24326.92689-2.47875 1.375-3.71875 9.32589-55.6141 6.8103-71.77457-13.12172-96.32984z" fill="#78540a"/>
<path d="m464.94034,385.13009c-.11297.22283-.19829.43153-.3125.65625 11.70447,21.74625 15.54324,38.85696 16.20178,64.79853 .70072-11.92022-.94203-28.06264-1.95462-39.77237-3.68525-10.94824-6.32947-15.36911-13.93466-25.68241z" fill="#78540a"/>
<path d="m354.65625,642.71875c.008,2.61867.0471,5.21549.15625,7.75 3.61896,19.7438 7.62061,39.52589 17.90625,52.5 1.24606-2.67782 2.48563-5.35776 3.8125-8.1875-12.62033-12.56684-16.38676-32.52646-21.875-52.0625z" fill="#78540a"/>
</g>
<g transform="translate(21.07509,2037.1363)">
<path d="m370,708.79075c28.4328-61.51901 83.81566-173.77665 96.42857-204.28571 20.8249-50.37285 18.79276-96.01585 10.36387-142.84004-12.58425,30.6683-72.17056,120.93059-100.60336,182.4496-29.85362,68.80392-25.51156,133.41937-6.18908,164.67615z" fill="url(#radialGradient7935)"/>
<path d="m408.04394,483.27937c-.40901.77359-.81105,1.53964-1.21875,2.3125 2.92759,35.42033 9.15392,75.99529 15.92481,112.34563 .18958-.39519.40453-.79302.59375-1.1875 .41156-43.12657-6.38158-82.44766-15.29981-113.47063z" fill="#78540a"/>
<path d="m421.07958,460.56955c-.42848.79704-.85231,1.57618-1.28125,2.375 5.71474,36.80976 10.49955,75.30223 11.32667,117.55545 .26397-.55169.51858-1.10709.78125-1.65625 3.29247-43.27788.39662-85.67931-10.82667-118.2742z" fill="#78540a"/>
<path d="m429.03176,447.04325c-.15515.28729-.31338.58725-.46875.875 7.71603,32.72447 14.58046,65.88269 12.93699,110.738 1.00646-2.1184 1.96754-4.10807 2.9375-6.15625 7.68563-44.74613-2.51565-75.81823-15.40574-105.45675z" fill="#78540a"/>
<path d="m439.46801,429.23222c-.21125.39137-.41286.7946-.625,1.1875 7.61216,35.80074 16.84091,58.48763 16.28199,99.33028 .40309-.86892.73604-1.62689 1.125-2.46875 5.99002-46.729-5.4764-70.9796-16.78199-98.04903z" fill="#78540a"/>
<path d="m447.79635,415.12363-.25.46875c12.14595,33.40506 14.90656,55.50453 15.32865,97.15762 .76747-1.73133 1.42802-3.24175 2.0625-4.71875 4.87377-47.92951-4.70536-69.44757-17.14115-92.90762z" fill="#78540a"/>
<path d="m396.40059,504.37447c-.0318.0618-.062.12575-.0937.1875-6.87178,28.09448 3.98391,83.30436 14.19316,118.90678 .35381-.73724.70869-1.45034 1.0625-2.1875-.67933-41.41569-13.82894-77.90023-15.16191-116.90678z" fill="#78540a"/>
<path d="m385.91014,524.05072c-1.34686,2.72564-2.72022,5.47593-4,8.125-3.01523,39.54167 10.05477,83.65446 19.43361,110.41803 .66661-1.39191 1.33021-2.78984 2-4.1875-3.21033-36.5958-15.35094-76.16103-17.43361-114.35553z" fill="#78540a"/>
<path d="m372.375,553.40625c-.28914.73744-.56234,1.48262-.84375,2.21875-7.54972,42.71638 9.26267,75.4969 21.90625,103.46875 .34957-.73257.67985-1.38903 1.03125-2.125-5.87793-37.07688-21.42383-59.70975-22.09375-103.5625z" fill="#78540a"/>
<path d="m365.75,572.3125c-.92977,3.00344-1.81993,6.00087-2.625,8.96875-5.16255,42.62183 10.73086,68.43719 23.125,92.9375l1.1875-2.5c-6.07653-31.69184-24.51093-53.24317-21.6875-99.40625z" fill="#78540a"/>
<path d="m358.46875,601.6875c-1.5394,8.35497-2.58304,16.48229-3.1875,24.34375 .97514,29.28525 12.52558,48.76479 22.78125,65.46875 .35444-.75403.70322-1.51813 1.0625-2.28125-7.86422-23.21285-22.71152-40.57667-20.65625-87.53125z" fill="#78540a"/>
<path d="m456.15953,400.73266c-.14808.28072-.31955.56128-.46875.84375 15.5562,28.79311 15.43809,53.15788 12.21547,99.20484 .48141-1.24326.92689-2.47875 1.375-3.71875 9.32589-55.6141 6.8103-71.77457-13.12172-96.32984z" fill="#78540a"/>
<path d="m464.94034,385.13009c-.11297.22283-.19829.43153-.3125.65625 11.70447,21.74625 15.54324,38.85696 16.20178,64.79853 .70072-11.92022-.94203-28.06264-1.95462-39.77237-3.68525-10.94824-6.32947-15.36911-13.93466-25.68241z" fill="#78540a"/>
<path d="m354.65625,642.71875c.008,2.61867.0471,5.21549.15625,7.75 3.61896,19.7438 7.62061,39.52589 17.90625,52.5 1.24606-2.67782 2.48563-5.35776 3.8125-8.1875-12.62033-12.56684-16.38676-32.52646-21.875-52.0625z" fill="#78540a"/>
</g>
<g transform="translate(21.07509,2150.0473)">
<path d="m370,708.79075c28.4328-61.51901 83.81566-173.77665 96.42857-204.28571 20.8249-50.37285 18.79276-96.01585 10.36387-142.84004-12.58425,30.6683-72.17056,120.93059-100.60336,182.4496-29.85362,68.80392-25.51156,133.41937-6.18908,164.67615z" fill="url(#radialGradient7935)"/>
<path d="m408.04394,483.27937c-.40901.77359-.81105,1.53964-1.21875,2.3125 2.92759,35.42033 9.15392,75.99529 15.92481,112.34563 .18958-.39519.40453-.79302.59375-1.1875 .41156-43.12657-6.38158-82.44766-15.29981-113.47063z" fill="#78540a"/>
<path d="m421.07958,460.56955c-.42848.79704-.85231,1.57618-1.28125,2.375 5.71474,36.80976 10.49955,75.30223 11.32667,117.55545 .26397-.55169.51858-1.10709.78125-1.65625 3.29247-43.27788.39662-85.67931-10.82667-118.2742z" fill="#78540a"/>
<path d="m429.03176,447.04325c-.15515.28729-.31338.58725-.46875.875 7.71603,32.72447 14.58046,65.88269 12.93699,110.738 1.00646-2.1184 1.96754-4.10807 2.9375-6.15625 7.68563-44.74613-2.51565-75.81823-15.40574-105.45675z" fill="#78540a"/>
<path d="m439.46801,429.23222c-.21125.39137-.41286.7946-.625,1.1875 7.61216,35.80074 16.84091,58.48763 16.28199,99.33028 .40309-.86892.73604-1.62689 1.125-2.46875 5.99002-46.729-5.4764-70.9796-16.78199-98.04903z" fill="#78540a"/>
<path d="m447.79635,415.12363-.25.46875c12.14595,33.40506 14.90656,55.50453 15.32865,97.15762 .76747-1.73133 1.42802-3.24175 2.0625-4.71875 4.87377-47.92951-4.70536-69.44757-17.14115-92.90762z" fill="#78540a"/>
<path d="m396.40059,504.37447c-.0318.0618-.062.12575-.0937.1875-6.87178,28.09448 3.98391,83.30436 14.19316,118.90678 .35381-.73724.70869-1.45034 1.0625-2.1875-.67933-41.41569-13.82894-77.90023-15.16191-116.90678z" fill="#78540a"/>
<path d="m385.91014,524.05072c-1.34686,2.72564-2.72022,5.47593-4,8.125-3.01523,39.54167 10.05477,83.65446 19.43361,110.41803 .66661-1.39191 1.33021-2.78984 2-4.1875-3.21033-36.5958-15.35094-76.16103-17.43361-114.35553z" fill="#78540a"/>
<path d="m372.375,553.40625c-.28914.73744-.56234,1.48262-.84375,2.21875-7.54972,42.71638 9.26267,75.4969 21.90625,103.46875 .34957-.73257.67985-1.38903 1.03125-2.125-5.87793-37.07688-21.42383-59.70975-22.09375-103.5625z" fill="#78540a"/>
<path d="m365.75,572.3125c-.92977,3.00344-1.81993,6.00087-2.625,8.96875-5.16255,42.62183 10.73086,68.43719 23.125,92.9375l1.1875-2.5c-6.07653-31.69184-24.51093-53.24317-21.6875-99.40625z" fill="#78540a"/>
<path d="m358.46875,601.6875c-1.5394,8.35497-2.58304,16.48229-3.1875,24.34375 .97514,29.28525 12.52558,48.76479 22.78125,65.46875 .35444-.75403.70322-1.51813 1.0625-2.28125-7.86422-23.21285-22.71152-40.57667-20.65625-87.53125z" fill="#78540a"/>
<path d="m456.15953,400.73266c-.14808.28072-.31955.56128-.46875.84375 15.5562,28.79311 15.43809,53.15788 12.21547,99.20484 .48141-1.24326.92689-2.47875 1.375-3.71875 9.32589-55.6141 6.8103-71.77457-13.12172-96.32984z" fill="#78540a"/>
<path d="m464.94034,385.13009c-.11297.22283-.19829.43153-.3125.65625 11.70447,21.74625 15.54324,38.85696 16.20178,64.79853 .70072-11.92022-.94203-28.06264-1.95462-39.77237-3.68525-10.94824-6.32947-15.36911-13.93466-25.68241z" fill="#78540a"/>
<path d="m354.65625,642.71875c.008,2.61867.0471,5.21549.15625,7.75 3.61896,19.7438 7.62061,39.52589 17.90625,52.5 1.24606-2.67782 2.48563-5.35776 3.8125-8.1875-12.62033-12.56684-16.38676-32.52646-21.875-52.0625z" fill="#78540a"/>
</g>
<g transform="translate(21.07509,2261.6793)">
<path d="m370,708.79075c28.4328-61.51901 83.81566-173.77665 96.42857-204.28571 20.8249-50.37285 18.79276-96.01585 10.36387-142.84004-12.58425,30.6683-72.17056,120.93059-100.60336,182.4496-29.85362,68.80392-25.51156,133.41937-6.18908,164.67615z" fill="url(#radialGradient7935)"/>
<path d="m408.04394,483.27937c-.40901.77359-.81105,1.53964-1.21875,2.3125 2.92759,35.42033 9.15392,75.99529 15.92481,112.34563 .18958-.39519.40453-.79302.59375-1.1875 .41156-43.12657-6.38158-82.44766-15.29981-113.47063z" fill="#78540a"/>
<path d="m421.07958,460.56955c-.42848.79704-.85231,1.57618-1.28125,2.375 5.71474,36.80976 10.49955,75.30223 11.32667,117.55545 .26397-.55169.51858-1.10709.78125-1.65625 3.29247-43.27788.39662-85.67931-10.82667-118.2742z" fill="#78540a"/>
<path d="m429.03176,447.04325c-.15515.28729-.31338.58725-.46875.875 7.71603,32.72447 14.58046,65.88269 12.93699,110.738 1.00646-2.1184 1.96754-4.10807 2.9375-6.15625 7.68563-44.74613-2.51565-75.81823-15.40574-105.45675z" fill="#78540a"/>
<path d="m439.46801,429.23222c-.21125.39137-.41286.7946-.625,1.1875 7.61216,35.80074 16.84091,58.48763 16.28199,99.33028 .40309-.86892.73604-1.62689 1.125-2.46875 5.99002-46.729-5.4764-70.9796-16.78199-98.04903z" fill="#78540a"/>
<path d="m447.79635,415.12363-.25.46875c12.14595,33.40506 14.90656,55.50453 15.32865,97.15762 .76747-1.73133 1.42802-3.24175 2.0625-4.71875 4.87377-47.92951-4.70536-69.44757-17.14115-92.90762z" fill="#78540a"/>
<path d="m396.40059,504.37447c-.0318.0618-.062.12575-.0937.1875-6.87178,28.09448 3.98391,83.30436 14.19316,118.90678 .35381-.73724.70869-1.45034 1.0625-2.1875-.67933-41.41569-13.82894-77.90023-15.16191-116.90678z" fill="#78540a"/>
<path d="m385.91014,524.05072c-1.34686,2.72564-2.72022,5.47593-4,8.125-3.01523,39.54167 10.05477,83.65446 19.43361,110.41803 .66661-1.39191 1.33021-2.78984 2-4.1875-3.21033-36.5958-15.35094-76.16103-17.43361-114.35553z" fill="#78540a"/>
<path d="m372.375,553.40625c-.28914.73744-.56234,1.48262-.84375,2.21875-7.54972,42.71638 9.26267,75.4969 21.90625,103.46875 .34957-.73257.67985-1.38903 1.03125-2.125-5.87793-37.07688-21.42383-59.70975-22.09375-103.5625z" fill="#78540a"/>
<path d="m365.75,572.3125c-.92977,3.00344-1.81993,6.00087-2.625,8.96875-5.16255,42.62183 10.73086,68.43719 23.125,92.9375l1.1875-2.5c-6.07653-31.69184-24.51093-53.24317-21.6875-99.40625z" fill="#78540a"/>
<path d="m358.46875,601.6875c-1.5394,8.35497-2.58304,16.48229-3.1875,24.34375 .97514,29.28525 12.52558,48.76479 22.78125,65.46875 .35444-.75403.70322-1.51813 1.0625-2.28125-7.86422-23.21285-22.71152-40.57667-20.65625-87.53125z" fill="#78540a"/>
<path d="m456.15953,400.73266c-.14808.28072-.31955.56128-.46875.84375 15.5562,28.79311 15.43809,53.15788 12.21547,99.20484 .48141-1.24326.92689-2.47875 1.375-3.71875 9.32589-55.6141 6.8103-71.77457-13.12172-96.32984z" fill="#78540a"/>
<path d="m464.94034,385.13009c-.11297.22283-.19829.43153-.3125.65625 11.70447,21.74625 15.54324,38.85696 16.20178,64.79853 .70072-11.92022-.94203-28.06264-1.95462-39.77237-3.68525-10.94824-6.32947-15.36911-13.93466-25.68241z" fill="#78540a"/>
<path d="m354.65625,642.71875c.008,2.61867.0471,5.21549.15625,7.75 3.61896,19.7438 7.62061,39.52589 17.90625,52.5 1.24606-2.67782 2.48563-5.35776 3.8125-8.1875-12.62033-12.56684-16.38676-32.52646-21.875-52.0625z" fill="#78540a"/>
</g>
<g transform="translate(21.07509,2372.4443)">
<path d="m370,708.79075c28.4328-61.51901 83.81566-173.77665 96.42857-204.28571 20.8249-50.37285 18.79276-96.01585 10.36387-142.84004-12.58425,30.6683-72.17056,120.93059-100.60336,182.4496-29.85362,68.80392-25.51156,133.41937-6.18908,164.67615z" fill="url(#radialGradient7935)"/>
<path d="m408.04394,483.27937c-.40901.77359-.81105,1.53964-1.21875,2.3125 2.92759,35.42033 9.15392,75.99529 15.92481,112.34563 .18958-.39519.40453-.79302.59375-1.1875 .41156-43.12657-6.38158-82.44766-15.29981-113.47063z" fill="#78540a"/>
<path d="m421.07958,460.56955c-.42848.79704-.85231,1.57618-1.28125,2.375 5.71474,36.80976 10.49955,75.30223 11.32667,117.55545 .26397-.55169.51858-1.10709.78125-1.65625 3.29247-43.27788.39662-85.67931-10.82667-118.2742z" fill="#78540a"/>
<path d="m429.03176,447.04325c-.15515.28729-.31338.58725-.46875.875 7.71603,32.72447 14.58046,65.88269 12.93699,110.738 1.00646-2.1184 1.96754-4.10807 2.9375-6.15625 7.68563-44.74613-2.51565-75.81823-15.40574-105.45675z" fill="#78540a"/>
<path d="m439.46801,429.23222c-.21125.39137-.41286.7946-.625,1.1875 7.61216,35.80074 16.84091,58.48763 16.28199,99.33028 .40309-.86892.73604-1.62689 1.125-2.46875 5.99002-46.729-5.4764-70.9796-16.78199-98.04903z" fill="#78540a"/>
<path d="m447.79635,415.12363-.25.46875c12.14595,33.40506 14.90656,55.50453 15.32865,97.15762 .76747-1.73133 1.42802-3.24175 2.0625-4.71875 4.87377-47.92951-4.70536-69.44757-17.14115-92.90762z" fill="#78540a"/>
<path d="m396.40059,504.37447c-.0318.0618-.062.12575-.0937.1875-6.87178,28.09448 3.98391,83.30436 14.19316,118.90678 .35381-.73724.70869-1.45034 1.0625-2.1875-.67933-41.41569-13.82894-77.90023-15.16191-116.90678z" fill="#78540a"/>
<path d="m385.91014,524.05072c-1.34686,2.72564-2.72022,5.47593-4,8.125-3.01523,39.54167 10.05477,83.65446 19.43361,110.41803 .66661-1.39191 1.33021-2.78984 2-4.1875-3.21033-36.5958-15.35094-76.16103-17.43361-114.35553z" fill="#78540a"/>
<path d="m372.375,553.40625c-.28914.73744-.56234,1.48262-.84375,2.21875-7.54972,42.71638 9.26267,75.4969 21.90625,103.46875 .34957-.73257.67985-1.38903 1.03125-2.125-5.87793-37.07688-21.42383-59.70975-22.09375-103.5625z" fill="#78540a"/>
<path d="m365.75,572.3125c-.92977,3.00344-1.81993,6.00087-2.625,8.96875-5.16255,42.62183 10.73086,68.43719 23.125,92.9375l1.1875-2.5c-6.07653-31.69184-24.51093-53.24317-21.6875-99.40625z" fill="#78540a"/>
<path d="m358.46875,601.6875c-1.5394,8.35497-2.58304,16.48229-3.1875,24.34375 .97514,29.28525 12.52558,48.76479 22.78125,65.46875 .35444-.75403.70322-1.51813 1.0625-2.28125-7.86422-23.21285-22.71152-40.57667-20.65625-87.53125z" fill="#78540a"/>
<path d="m456.15953,400.73266c-.14808.28072-.31955.56128-.46875.84375 15.5562,28.79311 15.43809,53.15788 12.21547,99.20484 .48141-1.24326.92689-2.47875 1.375-3.71875 9.32589-55.6141 6.8103-71.77457-13.12172-96.32984z" fill="#78540a"/>
<path d="m464.94034,385.13009c-.11297.22283-.19829.43153-.3125.65625 11.70447,21.74625 15.54324,38.85696 16.20178,64.79853 .70072-11.92022-.94203-28.06264-1.95462-39.77237-3.68525-10.94824-6.32947-15.36911-13.93466-25.68241z" fill="#78540a"/>
<path d="m354.65625,642.71875c.008,2.61867.0471,5.21549.15625,7.75 3.61896,19.7438 7.62061,39.52589 17.90625,52.5 1.24606-2.67782 2.48563-5.35776 3.8125-8.1875-12.62033-12.56684-16.38676-32.52646-21.875-52.0625z" fill="#78540a"/>
</g>
<g transform="translate(21.07509,2484.0763)">
<path d="m370,708.79075c28.4328-61.51901 83.81566-173.77665 96.42857-204.28571 20.8249-50.37285 18.79276-96.01585 10.36387-142.84004-12.58425,30.6683-72.17056,120.93059-100.60336,182.4496-29.85362,68.80392-25.51156,133.41937-6.18908,164.67615z" fill="url(#radialGradient7935)"/>
<path d="m408.04394,483.27937c-.40901.77359-.81105,1.53964-1.21875,2.3125 2.92759,35.42033 9.15392,75.99529 15.92481,112.34563 .18958-.39519.40453-.79302.59375-1.1875 .41156-43.12657-6.38158-82.44766-15.29981-113.47063z" fill="#78540a"/>
<path d="m421.07958,460.56955c-.42848.79704-.85231,1.57618-1.28125,2.375 5.71474,36.80976 10.49955,75.30223 11.32667,117.55545 .26397-.55169.51858-1.10709.78125-1.65625 3.29247-43.27788.39662-85.67931-10.82667-118.2742z" fill="#78540a"/>
<path d="m429.03176,447.04325c-.15515.28729-.31338.58725-.46875.875 7.71603,32.72447 14.58046,65.88269 12.93699,110.738 1.00646-2.1184 1.96754-4.10807 2.9375-6.15625 7.68563-44.74613-2.51565-75.81823-15.40574-105.45675z" fill="#78540a"/>
<path d="m439.46801,429.23222c-.21125.39137-.41286.7946-.625,1.1875 7.61216,35.80074 16.84091,58.48763 16.28199,99.33028 .40309-.86892.73604-1.62689 1.125-2.46875 5.99002-46.729-5.4764-70.9796-16.78199-98.04903z" fill="#78540a"/>
<path d="m447.79635,415.12363-.25.46875c12.14595,33.40506 14.90656,55.50453 15.32865,97.15762 .76747-1.73133 1.42802-3.24175 2.0625-4.71875 4.87377-47.92951-4.70536-69.44757-17.14115-92.90762z" fill="#78540a"/>
<path d="m396.40059,504.37447c-.0318.0618-.062.12575-.0937.1875-6.87178,28.09448 3.98391,83.30436 14.19316,118.90678 .35381-.73724.70869-1.45034 1.0625-2.1875-.67933-41.41569-13.82894-77.90023-15.16191-116.90678z" fill="#78540a"/>
<path d="m385.91014,524.05072c-1.34686,2.72564-2.72022,5.47593-4,8.125-3.01523,39.54167 10.05477,83.65446 19.43361,110.41803 .66661-1.39191 1.33021-2.78984 2-4.1875-3.21033-36.5958-15.35094-76.16103-17.43361-114.35553z" fill="#78540a"/>
<path d="m372.375,553.40625c-.28914.73744-.56234,1.48262-.84375,2.21875-7.54972,42.71638 9.26267,75.4969 21.90625,103.46875 .34957-.73257.67985-1.38903 1.03125-2.125-5.87793-37.07688-21.42383-59.70975-22.09375-103.5625z" fill="#78540a"/>
<path d="m365.75,572.3125c-.92977,3.00344-1.81993,6.00087-2.625,8.96875-5.16255,42.62183 10.73086,68.43719 23.125,92.9375l1.1875-2.5c-6.07653-31.69184-24.51093-53.24317-21.6875-99.40625z" fill="#78540a"/>
<path d="m358.46875,601.6875c-1.5394,8.35497-2.58304,16.48229-3.1875,24.34375 .97514,29.28525 12.52558,48.76479 22.78125,65.46875 .35444-.75403.70322-1.51813 1.0625-2.28125-7.86422-23.21285-22.71152-40.57667-20.65625-87.53125z" fill="#78540a"/>
<path d="m456.15953,400.73266c-.14808.28072-.31955.56128-.46875.84375 15.5562,28.79311 15.43809,53.15788 12.21547,99.20484 .48141-1.24326.92689-2.47875 1.375-3.71875 9.32589-55.6141 6.8103-71.77457-13.12172-96.32984z" fill="#78540a"/>
<path d="m464.94034,385.13009c-.11297.22283-.19829.43153-.3125.65625 11.70447,21.74625 15.54324,38.85696 16.20178,64.79853 .70072-11.92022-.94203-28.06264-1.95462-39.77237-3.68525-10.94824-6.32947-15.36911-13.93466-25.68241z" fill="#78540a"/>
<path d="m354.65625,642.71875c.008,2.61867.0471,5.21549.15625,7.75 3.61896,19.7438 7.62061,39.52589 17.90625,52.5 1.24606-2.67782 2.48563-5.35776 3.8125-8.1875-12.62033-12.56684-16.38676-32.52646-21.875-52.0625z" fill="#78540a"/>
</g>
<g transform="translate(21.07509,2594.9873)">
<path d="m370,708.79075c28.4328-61.51901 83.81566-173.77665 96.42857-204.28571 20.8249-50.37285 18.79276-96.01585 10.36387-142.84004-12.58425,30.6683-72.17056,120.93059-100.60336,182.4496-29.85362,68.80392-25.51156,133.41937-6.18908,164.67615z" fill="url(#radialGradient7935)"/>
<path d="m408.04394,483.27937c-.40901.77359-.81105,1.53964-1.21875,2.3125 2.92759,35.42033 9.15392,75.99529 15.92481,112.34563 .18958-.39519.40453-.79302.59375-1.1875 .41156-43.12657-6.38158-82.44766-15.29981-113.47063z" fill="#78540a"/>
<path d="m421.07958,460.56955c-.42848.79704-.85231,1.57618-1.28125,2.375 5.71474,36.80976 10.49955,75.30223 11.32667,117.55545 .26397-.55169.51858-1.10709.78125-1.65625 3.29247-43.27788.39662-85.67931-10.82667-118.2742z" fill="#78540a"/>
<path d="m429.03176,447.04325c-.15515.28729-.31338.58725-.46875.875 7.71603,32.72447 14.58046,65.88269 12.93699,110.738 1.00646-2.1184 1.96754-4.10807 2.9375-6.15625 7.68563-44.74613-2.51565-75.81823-15.40574-105.45675z" fill="#78540a"/>
<path d="m439.46801,429.23222c-.21125.39137-.41286.7946-.625,1.1875 7.61216,35.80074 16.84091,58.48763 16.28199,99.33028 .40309-.86892.73604-1.62689 1.125-2.46875 5.99002-46.729-5.4764-70.9796-16.78199-98.04903z" fill="#78540a"/>
<path d="m447.79635,415.12363-.25.46875c12.14595,33.40506 14.90656,55.50453 15.32865,97.15762 .76747-1.73133 1.42802-3.24175 2.0625-4.71875 4.87377-47.92951-4.70536-69.44757-17.14115-92.90762z" fill="#78540a"/>
<path d="m396.40059,504.37447c-.0318.0618-.062.12575-.0937.1875-6.87178,28.09448 3.98391,83.30436 14.19316,118.90678 .35381-.73724.70869-1.45034 1.0625-2.1875-.67933-41.41569-13.82894-77.90023-15.16191-116.90678z" fill="#78540a"/>
<path d="m385.91014,524.05072c-1.34686,2.72564-2.72022,5.47593-4,8.125-3.01523,39.54167 10.05477,83.65446 19.43361,110.41803 .66661-1.39191 1.33021-2.78984 2-4.1875-3.21033-36.5958-15.35094-76.16103-17.43361-114.35553z" fill="#78540a"/>
<path d="m372.375,553.40625c-.28914.73744-.56234,1.48262-.84375,2.21875-7.54972,42.71638 9.26267,75.4969 21.90625,103.46875 .34957-.73257.67985-1.38903 1.03125-2.125-5.87793-37.07688-21.42383-59.70975-22.09375-103.5625z" fill="#78540a"/>
<path d="m365.75,572.3125c-.92977,3.00344-1.81993,6.00087-2.625,8.96875-5.16255,42.62183 10.73086,68.43719 23.125,92.9375l1.1875-2.5c-6.07653-31.69184-24.51093-53.24317-21.6875-99.40625z" fill="#78540a"/>
<path d="m358.46875,601.6875c-1.5394,8.35497-2.58304,16.48229-3.1875,24.34375 .97514,29.28525 12.52558,48.76479 22.78125,65.46875 .35444-.75403.70322-1.51813 1.0625-2.28125-7.86422-23.21285-22.71152-40.57667-20.65625-87.53125z" fill="#78540a"/>
<path d="m456.15953,400.73266c-.14808.28072-.31955.56128-.46875.84375 15.5562,28.79311 15.43809,53.15788 12.21547,99.20484 .48141-1.24326.92689-2.47875 1.375-3.71875 9.32589-55.6141 6.8103-71.77457-13.12172-96.32984z" fill="#78540a"/>
<path d="m464.94034,385.13009c-.11297.22283-.19829.43153-.3125.65625 11.70447,21.74625 15.54324,38.85696 16.20178,64.79853 .70072-11.92022-.94203-28.06264-1.95462-39.77237-3.68525-10.94824-6.32947-15.36911-13.93466-25.68241z" fill="#78540a"/>
<path d="m354.65625,642.71875c.008,2.61867.0471,5.21549.15625,7.75 3.61896,19.7438 7.62061,39.52589 17.90625,52.5 1.24606-2.67782 2.48563-5.35776 3.8125-8.1875-12.62033-12.56684-16.38676-32.52646-21.875-52.0625z" fill="#78540a"/>
</g>
<g transform="translate(21.07509,2705.6194)">
<path d="m370,708.79075c28.4328-61.51901 83.81566-173.77665 96.42857-204.28571 20.8249-50.37285 18.79276-96.01585 10.36387-142.84004-12.58425,30.6683-72.17056,120.93059-100.60336,182.4496-29.85362,68.80392-25.51156,133.41937-6.18908,164.67615z" fill="url(#radialGradient7935)"/>
<path d="m408.04394,483.27937c-.40901.77359-.81105,1.53964-1.21875,2.3125 2.92759,35.42033 9.15392,75.99529 15.92481,112.34563 .18958-.39519.40453-.79302.59375-1.1875 .41156-43.12657-6.38158-82.44766-15.29981-113.47063z" fill="#78540a"/>
<path d="m421.07958,460.56955c-.42848.79704-.85231,1.57618-1.28125,2.375 5.71474,36.80976 10.49955,75.30223 11.32667,117.55545 .26397-.55169.51858-1.10709.78125-1.65625 3.29247-43.27788.39662-85.67931-10.82667-118.2742z" fill="#78540a"/>
<path d="m429.03176,447.04325c-.15515.28729-.31338.58725-.46875.875 7.71603,32.72447 14.58046,65.88269 12.93699,110.738 1.00646-2.1184 1.96754-4.10807 2.9375-6.15625 7.68563-44.74613-2.51565-75.81823-15.40574-105.45675z" fill="#78540a"/>
<path d="m439.46801,429.23222c-.21125.39137-.41286.7946-.625,1.1875 7.61216,35.80074 16.84091,58.48763 16.28199,99.33028 .40309-.86892.73604-1.62689 1.125-2.46875 5.99002-46.729-5.4764-70.9796-16.78199-98.04903z" fill="#78540a"/>
<path d="m447.79635,415.12363-.25.46875c12.14595,33.40506 14.90656,55.50453 15.32865,97.15762 .76747-1.73133 1.42802-3.24175 2.0625-4.71875 4.87377-47.92951-4.70536-69.44757-17.14115-92.90762z" fill="#78540a"/>
<path d="m396.40059,504.37447c-.0318.0618-.062.12575-.0937.1875-6.87178,28.09448 3.98391,83.30436 14.19316,118.90678 .35381-.73724.70869-1.45034 1.0625-2.1875-.67933-41.41569-13.82894-77.90023-15.16191-116.90678z" fill="#78540a"/>
<path d="m385.91014,524.05072c-1.34686,2.72564-2.72022,5.47593-4,8.125-3.01523,39.54167 10.05477,83.65446 19.43361,110.41803 .66661-1.39191 1.33021-2.78984 2-4.1875-3.21033-36.5958-15.35094-76.16103-17.43361-114.35553z" fill="#78540a"/>
<path d="m372.375,553.40625c-.28914.73744-.56234,1.48262-.84375,2.21875-7.54972,42.71638 9.26267,75.4969 21.90625,103.46875 .34957-.73257.67985-1.38903 1.03125-2.125-5.87793-37.07688-21.42383-59.70975-22.09375-103.5625z" fill="#78540a"/>
<path d="m365.75,572.3125c-.92977,3.00344-1.81993,6.00087-2.625,8.96875-5.16255,42.62183 10.73086,68.43719 23.125,92.9375l1.1875-2.5c-6.07653-31.69184-24.51093-53.24317-21.6875-99.40625z" fill="#78540a"/>
<path d="m358.46875,601.6875c-1.5394,8.35497-2.58304,16.48229-3.1875,24.34375 .97514,29.28525 12.52558,48.76479 22.78125,65.46875 .35444-.75403.70322-1.51813 1.0625-2.28125-7.86422-23.21285-22.71152-40.57667-20.65625-87.53125z" fill="#78540a"/>
<path d="m456.15953,400.73266c-.14808.28072-.31955.56128-.46875.84375 15.5562,28.79311 15.43809,53.15788 12.21547,99.20484 .48141-1.24326.92689-2.47875 1.375-3.71875 9.32589-55.6141 6.8103-71.77457-13.12172-96.32984z" fill="#78540a"/>
<path d="m464.94034,385.13009c-.11297.22283-.19829.43153-.3125.65625 11.70447,21.74625 15.54324,38.85696 16.20178,64.79853 .70072-11.92022-.94203-28.06264-1.95462-39.77237-3.68525-10.94824-6.32947-15.36911-13.93466-25.68241z" fill="#78540a"/>
<path d="m354.65625,642.71875c.008,2.61867.0471,5.21549.15625,7.75 3.61896,19.7438 7.62061,39.52589 17.90625,52.5 1.24606-2.67782 2.48563-5.35776 3.8125-8.1875-12.62033-12.56684-16.38676-32.52646-21.875-52.0625z" fill="#78540a"/>
</g>
<g transform="translate(21.07509,2816.5537)">
<path d="m370,708.79075c28.4328-61.51901 83.81566-173.77665 96.42857-204.28571 20.8249-50.37285 18.79276-96.01585 10.36387-142.84004-12.58425,30.6683-72.17056,120.93059-100.60336,182.4496-29.85362,68.80392-25.51156,133.41937-6.18908,164.67615z" fill="url(#radialGradient7935)"/>
<path d="m408.04394,483.27937c-.40901.77359-.81105,1.53964-1.21875,2.3125 2.92759,35.42033 9.15392,75.99529 15.92481,112.34563 .18958-.39519.40453-.79302.59375-1.1875 .41156-43.12657-6.38158-82.44766-15.29981-113.47063z" fill="#78540a"/>
<path d="m421.07958,460.56955c-.42848.79704-.85231,1.57618-1.28125,2.375 5.71474,36.80976 10.49955,75.30223 11.32667,117.55545 .26397-.55169.51858-1.10709.78125-1.65625 3.29247-43.27788.39662-85.67931-10.82667-118.2742z" fill="#78540a"/>
<path d="m429.03176,447.04325c-.15515.28729-.31338.58725-.46875.875 7.71603,32.72447 14.58046,65.88269 12.93699,110.738 1.00646-2.1184 1.96754-4.10807 2.9375-6.15625 7.68563-44.74613-2.51565-75.81823-15.40574-105.45675z" fill="#78540a"/>
<path d="m439.46801,429.23222c-.21125.39137-.41286.7946-.625,1.1875 7.61216,35.80074 16.84091,58.48763 16.28199,99.33028 .40309-.86892.73604-1.62689 1.125-2.46875 5.99002-46.729-5.4764-70.9796-16.78199-98.04903z" fill="#78540a"/>
<path d="m447.79635,415.12363-.25.46875c12.14595,33.40506 14.90656,55.50453 15.32865,97.15762 .76747-1.73133 1.42802-3.24175 2.0625-4.71875 4.87377-47.92951-4.70536-69.44757-17.14115-92.90762z" fill="#78540a"/>
<path d="m396.40059,504.37447c-.0318.0618-.062.12575-.0937.1875-6.87178,28.09448 3.98391,83.30436 14.19316,118.90678 .35381-.73724.70869-1.45034 1.0625-2.1875-.67933-41.41569-13.82894-77.90023-15.16191-116.90678z" fill="#78540a"/>
<path d="m385.91014,524.05072c-1.34686,2.72564-2.72022,5.47593-4,8.125-3.01523,39.54167 10.05477,83.65446 19.43361,110.41803 .66661-1.39191 1.33021-2.78984 2-4.1875-3.21033-36.5958-15.35094-76.16103-17.43361-114.35553z" fill="#78540a"/>
<path d="m372.375,553.40625c-.28914.73744-.56234,1.48262-.84375,2.21875-7.54972,42.71638 9.26267,75.4969 21.90625,103.46875 .34957-.73257.67985-1.38903 1.03125-2.125-5.87793-37.07688-21.42383-59.70975-22.09375-103.5625z" fill="#78540a"/>
<path d="m365.75,572.3125c-.92977,3.00344-1.81993,6.00087-2.625,8.96875-5.16255,42.62183 10.73086,68.43719 23.125,92.9375l1.1875-2.5c-6.07653-31.69184-24.51093-53.24317-21.6875-99.40625z" fill="#78540a"/>
<path d="m358.46875,601.6875c-1.5394,8.35497-2.58304,16.48229-3.1875,24.34375 .97514,29.28525 12.52558,48.76479 22.78125,65.46875 .35444-.75403.70322-1.51813 1.0625-2.28125-7.86422-23.21285-22.71152-40.57667-20.65625-87.53125z" fill="#78540a"/>
<path d="m456.15953,400.73266c-.14808.28072-.31955.56128-.46875.84375 15.5562,28.79311 15.43809,53.15788 12.21547,99.20484 .48141-1.24326.92689-2.47875 1.375-3.71875 9.32589-55.6141 6.8103-71.77457-13.12172-96.32984z" fill="#78540a"/>
<path d="m464.94034,385.13009c-.11297.22283-.19829.43153-.3125.65625 11.70447,21.74625 15.54324,38.85696 16.20178,64.79853 .70072-11.92022-.94203-28.06264-1.95462-39.77237-3.68525-10.94824-6.32947-15.36911-13.93466-25.68241z" fill="#78540a"/>
<path d="m354.65625,642.71875c.008,2.61867.0471,5.21549.15625,7.75 3.61896,19.7438 7.62061,39.52589 17.90625,52.5 1.24606-2.67782 2.48563-5.35776 3.8125-8.1875-12.62033-12.56684-16.38676-32.52646-21.875-52.0625z" fill="#78540a"/>
</g>
<path d="m497.875,3289.8438c-12.58425,30.6682-72.1922,120.9497-100.625,182.4687-23.6225,54.443-25.80381,106.2226-16.125,140.9687h21.03125c29.83135-63.1958 74.21683-153.679 85.34375-180.5937 20.8249-50.3728 18.80389-96.0195 10.375-142.8437z" fill="url(#radialGradient7971)"/>
<path d="m429.11903,3411.4651c-.40901.7736-.81105,1.5396-1.21875,2.3125 2.92759,35.4203 9.15392,75.9953 15.92481,112.3456 .18958-.3952.40453-.793.59375-1.1875 .41156-43.1266-6.38158-82.4477-15.29981-113.4706z" fill="#78540a"/>
<path d="m442.15467,3388.7553c-.42848.797-.85231,1.5761-1.28125,2.375 5.71474,36.8097 10.49955,75.3022 11.32667,117.5554 .26397-.5517.51858-1.1071.78125-1.6562 3.29247-43.2779.39662-85.6794-10.82667-118.2742z" fill="#78540a"/>
<path d="m450.10685,3375.229c-.15515.2872-.31338.5872-.46875.875 7.71603,32.7244 14.58046,65.8826 12.93699,110.738 1.00646-2.1184 1.96754-4.1081 2.9375-6.1563 7.68563-44.7461-2.51565-75.8182-15.40574-105.4567z" fill="#78540a"/>
<path d="m460.5431,3357.4179c-.21125.3914-.41286.7946-.625,1.1875 7.61216,35.8008 16.84091,58.4877 16.28199,99.3303 .40309-.8689.73604-1.6269 1.125-2.4687 5.99002-46.729-5.4764-70.9797-16.78199-98.0491z" fill="#78540a"/>
<path d="m468.87144,3343.3093-.25.4688c12.14595,33.405 14.90656,55.5045 15.32865,97.1576 .76747-1.7313 1.42802-3.2418 2.0625-4.7187 4.87377-47.9296-4.70536-69.4476-17.14115-92.9077z" fill="#78540a"/>
<path d="m417.47568,3432.5602c-.0318.062-.062.1257-.0937.1875-6.87178,28.0945 3.98391,83.3043 14.19316,118.9068 .35381-.7373.70869-1.4504 1.0625-2.1875-.67933-41.4157-13.82894-77.9003-15.16191-116.9068z" fill="#78540a"/>
<path d="m406.98523,3452.2364c-1.34686,2.7257-2.72022,5.4759-4,8.125-3.01523,39.5417 10.05477,83.6545 19.43361,110.4181 .66661-1.392 1.33021-2.7899 2-4.1875-3.21033-36.5958-15.35094-76.1611-17.43361-114.3556z" fill="#78540a"/>
<path d="m393.45009,3481.592c-.28914.7374-.56234,1.4826-.84375,2.2187-7.54972,42.7164 9.26267,75.4969 21.90625,103.4688 .34957-.7326.67985-1.3891 1.03125-2.125-5.87793-37.0769-21.42383-59.7098-22.09375-103.5625z" fill="#78540a"/>
<path d="m386.82509,3500.4982c-.92977,3.0034-1.81993,6.0009-2.625,8.9688-5.16255,42.6218 10.73086,68.4371 23.125,92.9375l1.1875-2.5c-6.07653-31.6919-24.51093-53.2432-21.6875-99.4063z" fill="#78540a"/>
<path d="m379.53125,3529.875c-1.5394,8.355-2.58304,16.4823-3.1875,24.3438 .85325,25.6245 9.81159,43.7432 18.90625,59.0624h3.46875c-8.09957-21.2746-21.11907-39.2777-19.1875-83.4062z" fill="#78540a"/>
<path d="m477.23462,3328.9184c-.14808.2807-.31955.5612-.46875.8437 15.5562,28.7931 15.43809,53.1579 12.21547,99.2049 .48141-1.2433.92689-2.4788 1.375-3.7188 9.32589-55.6141 6.8103-71.7746-13.12172-96.3298z" fill="#78540a"/>
<path d="m486.01543,3313.3158c-.11297.2228-.19829.4315-.3125.6562 11.70447,21.7463 15.54324,38.857 16.20178,64.7986 .70072-11.9202-.94203-28.0627-1.95462-39.7724-3.68525-10.9482-6.32947-15.3691-13.93466-25.6824z" fill="#78540a"/>
<path d="m375.71875,3570.9062c.008,2.6186.0471,5.2155.15625,7.75 2.20787,12.0454 4.57347,24.1058 8.40625,34.625h5.9375c-7.03631-11.9853-10.26715-27.3077-14.5-42.375z" fill="#78540a"/>
<path d="m497.875,3402.75c-12.58425,30.6683-72.1922,120.9498-100.625,182.4688-4.10768,9.4669-7.54331,18.83-10.40625,28.0624h69.3125c14.29042-29.927 26.29303-55.4704 31.34375-67.6874 20.8249-50.3729 18.80389-96.0196 10.375-142.8438z" fill="url(#radialGradient7973)"/>
<path d="m429.125,3524.375c-.40901.7736-.81105,1.5396-1.21875,2.3125 2.25171,27.243 6.47357,57.5197 11.375,86.5937h4.625c-1.76371-33.4561-7.58907-63.8875-14.78125-88.9062z" fill="#78540a"/>
<path d="m442.15625,3501.6562c-.42848.7971-.85231,1.5762-1.28125,2.375 5.33746,34.3796 9.8455,70.2417 11.09375,109.25h1.46875c2.51437-40.9454-.63487-80.7056-11.28125-111.625z" fill="#78540a"/>
<path d="m450.10685,3488.14c-.15515.2872-.31338.5872-.46875.875 7.71603,32.7244 14.58046,65.8826 12.93699,110.738 1.00646-2.1184 1.96754-4.1081 2.9375-6.1563 7.68563-44.7461-2.51565-75.8182-15.40574-105.4567z" fill="#78540a"/>
<path d="m460.5431,3470.3289c-.21125.3914-.41286.7946-.625,1.1875 7.61216,35.8008 16.84091,58.4877 16.28199,99.3303 .40309-.8689.73604-1.6269 1.125-2.4687 5.99002-46.729-5.4764-70.9796-16.78199-98.0491z" fill="#78540a"/>
<path d="m468.87144,3456.2203-.25.4688c12.14595,33.405 14.90656,55.5045 15.32865,97.1576 .76747-1.7313 1.42802-3.2417 2.0625-4.7187 4.87377-47.9296-4.70536-69.4476-17.14115-92.9077z" fill="#78540a"/>
<path d="m417.46875,3545.4688c-.0318.062-.062.1257-.0937.1874-4.01084,16.3979-1.94537,42.0427 2.46875,67.625h7.3125c-4.02085-22.7433-8.90253-44.8421-9.6875-67.8124z" fill="#78540a"/>
<path d="m407,3565.1562c-1.34686,2.7257-2.72022,5.4759-4,8.125-.99914,13.1028-.21995,26.691 1.59375,40h8.875c-2.9867-16.0769-5.60094-32.21-6.46875-48.125z" fill="#78540a"/>
<path d="m393.4375,3594.5c-.28914.7374-.56234,1.4826-.84375,2.2188-1.00662,5.6954-1.54195,11.2081-1.75,16.5624h3.875c-.71128-5.8446-1.17873-12.0705-1.28125-18.7812z" fill="#78540a"/>
<path d="m477.23462,3441.8294c-.14808.2807-.31955.5612-.46875.8437 15.5562,28.7931 15.43809,53.1579 12.21547,99.2049 .48141-1.2433.92689-2.4788 1.375-3.7188 9.32589-55.6141 6.8103-71.7746-13.12172-96.3298z" fill="#78540a"/>
<path d="m486.01543,3426.2268c-.11297.2228-.19829.4315-.3125.6562 11.70447,21.7463 15.54324,38.857 16.20178,64.7986 .70072-11.9202-.94203-28.0627-1.95462-39.7724-3.68525-10.9482-6.32947-15.3691-13.93466-25.6824z" fill="#78540a"/>
<path d="m497.875,3514.4062c-7.45417,18.1662-31.39988,57.2491-55.59375,98.875h58.1875c6.07613-33.7422 3.32186-66.0125-2.59375-98.875z" fill="url(#radialGradient7975)"/>
<path d="m450.09375,3599.7812c-.15515.2873-.31338.5872-.46875.875 .98863,4.1929 1.96168,8.3942 2.90625,12.625h3.125c-1.76367-4.559-3.62591-9.0471-5.5625-13.5z" fill="#78540a"/>
<path d="m460.53125,3581.9688c-.21125.3913-.41286.7946-.625,1.1874 2.33738,10.993 4.81295,20.6997 7.125,30.125h5.59375c-3.38883-10.9741-7.75961-20.935-12.09375-31.3124z" fill="#78540a"/>
<path d="m468.875,3567.8438-.25.4687c6.00038,16.5028 9.69988,30.2636 11.96875,44.9687h4.9375c-2.95993-18.3635-9.30609-31.5714-16.65625-45.4374z" fill="#78540a"/>
<path d="m477.25,3553.4688c-.14808.2806-.31955.5612-.46875.8437 10.29845,19.0615 13.69982,36.2132 13.90625,58.9687h4.4375c2.00731-28.1628-3.17723-41.7056-17.875-59.8124z" fill="#78540a"/>
<path d="m486.01543,3537.8588c-.11297.2228-.19829.4315-.3125.6562 11.70447,21.7463 15.54324,38.857 16.20178,64.7986 .70072-11.9202-.94203-28.0627-1.95462-39.7724-3.68525-10.9482-6.32947-15.3691-13.93466-25.6824z" fill="#78540a"/>
</g>
</svg>
